<?xml version="1.0" encoding="UTF-8"?>
<svg width="10px" height="6px" viewBox="0 0 10 6" version="1.1" xmlns="http://www.w3.org/2000/svg" xmlns:xlink="http://www.w3.org/1999/xlink">
    <title>arrow down</title>
    <g id="hi-fi-design" stroke="none" stroke-width="1" fill="none" fill-rule="evenodd">
        <g id="Profile-availability" transform="translate(-1034.000000, -355.000000)" fill="#7F68FF" fill-rule="nonzero">
            <path d="M1039,361 C1039.20833,361 1039.40625,360.90625 1039.59375,360.71875 L1039.59375,360.71875 L1043.84375,355.84375 L1043.90625,355.75 C1043.96875,355.6875 1044,355.604167 1044,355.5 C1044,355.354167 1043.94792,355.234375 1043.84375,355.140625 C1043.73958,355.046875 1043.61458,355 1043.46875,355 L1043.46875,355 L1034.53125,355 C1034.38542,355 1034.26042,355.046875 1034.15625,355.140625 C1034.05208,355.234375 1034,355.354167 1034,355.5 C1034,355.625 1034.03125,355.71875 1034.09375,355.78125 L1034.09375,355.78125 L1034.15625,355.84375 L1038.40625,360.71875 C1038.59375,360.90625 1038.79167,361 1039,361 Z"></path>
        </g>
    </g>
</svg>
