<?xml version="1.0" encoding="UTF-8"?>
<svg width="21px" height="23px" viewBox="0 0 21 23" version="1.1" xmlns="http://www.w3.org/2000/svg" xmlns:xlink="http://www.w3.org/1999/xlink">
    <title></title>
    <g id="hi-fi-design" stroke="none" stroke-width="1" fill="none" fill-rule="evenodd">
        <g id="08-dashboard-with-match" transform="translate(-706.000000, -660.000000)" fill="#FFFFFF" fill-rule="nonzero">
            <g id="Group-3-Copy-2" transform="translate(688.000000, 645.000000)">
                <path d="M36.8571653,37.1428609 C37.7165414,37.1428609 38.4285958,36.4308065 38.4285958,35.5714304 L38.4285958,19.857126 C38.4285958,18.99775 37.7165414,18.2856956 36.8571653,18.2856956 L35.2857349,18.2856956 L35.2857349,17.1071227 C35.2857349,16.0267643 34.4018053,15.1428347 33.3214468,15.1428347 L32.5357316,15.1428347 C31.4553732,15.1428347 30.5714436,16.0267643 30.5714436,17.1071227 L30.5714436,18.2856956 L25.8571522,18.2856956 L25.8571522,17.1071227 C25.8571522,16.0267643 24.9732226,15.1428347 23.8928642,15.1428347 L23.1071489,15.1428347 C22.0267905,15.1428347 21.1428609,16.0267643 21.1428609,17.1071227 L21.1428609,18.2856956 L19.5714304,18.2856956 C18.7120544,18.2856956 18,18.99775 18,19.857126 L18,35.5714304 C18,36.4308065 18.7120544,37.1428609 19.5714304,37.1428609 L36.8571653,37.1428609 Z M23.8928642,21.0356988 L23.1071489,21.0356988 C22.8861665,21.0356988 22.7142913,20.8638236 22.7142913,20.6428412 L22.7142913,17.1071227 C22.7142913,16.8861403 22.8861665,16.7142651 23.1071489,16.7142651 L23.8928642,16.7142651 C24.1138466,16.7142651 24.2857218,16.8861403 24.2857218,17.1071227 L24.2857218,20.6428412 C24.2857218,20.8638236 24.1138466,21.0356988 23.8928642,21.0356988 Z M33.3214468,21.0356988 L32.5357316,21.0356988 C32.3147492,21.0356988 32.142874,20.8638236 32.142874,20.6428412 L32.142874,17.1071227 C32.142874,16.8861403 32.3147492,16.7142651 32.5357316,16.7142651 L33.3214468,16.7142651 C33.5424292,16.7142651 33.7143044,16.8861403 33.7143044,17.1071227 L33.7143044,20.6428412 C33.7143044,20.8638236 33.5424292,21.0356988 33.3214468,21.0356988 Z M36.8571653,35.5714304 L19.5714304,35.5714304 L19.5714304,22.9999869 L36.8571653,22.9999869 L36.8571653,35.5714304 Z M27.7109491,33.263392 L33.9966709,26.9776702 C34.1439925,26.8180718 34.1439925,26.5725358 33.9966709,26.4252142 L33.431938,25.8604814 C33.2846164,25.7131598 33.0390804,25.7131598 32.879482,25.8604814 L27.4285827,31.3113807 L24.7276866,28.6104846 C24.5680882,28.463163 24.3225522,28.463163 24.1752306,28.6104846 L23.6104978,29.1752175 C23.4631762,29.3225391 23.4631762,29.5680751 23.6104978,29.7276735 L27.1462163,33.263392 C27.3058147,33.4107136 27.5513507,33.4107136 27.7109491,33.263392 Z" id=""></path>
            </g>
        </g>
    </g>
</svg>
