<?xml version="1.0" encoding="UTF-8"?>
<svg width="401px" height="264px" viewBox="0 0 401 264" version="1.1" xmlns="http://www.w3.org/2000/svg" xmlns:xlink="http://www.w3.org/1999/xlink">
    <title>Group 4 Copy</title>
    <defs>
        <linearGradient x1="18.4105112%" y1="62.6391461%" x2="78.5468432%" y2="43.7732767%" id="linearGradient-1">
            <stop stop-color="#84A5FF" offset="0%"></stop>
            <stop stop-color="#5F77FF" offset="100%"></stop>
        </linearGradient>
        <radialGradient cx="97.2241291%" cy="63.654606%" fx="97.2241291%" fy="63.654606%" r="70.4001326%" gradientTransform="translate(0.972241,0.636546),scale(1.000000,0.868421),rotate(149.076909),translate(-0.972241,-0.636546)" id="radialGradient-2">
            <stop stop-color="#FFF1E5" offset="0%"></stop>
            <stop stop-color="#FFDFC7" offset="100%"></stop>
        </radialGradient>
        <radialGradient cx="67.4376401%" cy="11.5086091%" fx="67.4376401%" fy="11.5086091%" r="116.693331%" gradientTransform="translate(0.674376,0.115086),scale(0.756757,1.000000),rotate(91.391294),translate(-0.674376,-0.115086)" id="radialGradient-3">
            <stop stop-color="#84A5FF" offset="0%"></stop>
            <stop stop-color="#5F77FF" offset="100%"></stop>
        </radialGradient>
        <linearGradient x1="50%" y1="0%" x2="50%" y2="100%" id="linearGradient-4">
            <stop stop-color="#A6B7FF" offset="0%"></stop>
            <stop stop-color="#5D74FA" offset="100%"></stop>
        </linearGradient>
        <linearGradient x1="51.8010905%" y1="17.3637392%" x2="50%" y2="100%" id="linearGradient-5">
            <stop stop-color="#E4DFFF" offset="0%"></stop>
            <stop stop-color="#7F68FF" offset="100%"></stop>
        </linearGradient>
        <linearGradient x1="51.0898267%" y1="23.2509422%" x2="50%" y2="100%" id="linearGradient-6">
            <stop stop-color="#7F68FF" offset="0%"></stop>
            <stop stop-color="#B6A1FF" offset="100%"></stop>
        </linearGradient>
        <linearGradient x1="54.1178033%" y1="46.7109592%" x2="50%" y2="53.9674668%" id="linearGradient-7">
            <stop stop-color="#FFF1E5" offset="0%"></stop>
            <stop stop-color="#FFDFC7" offset="100%"></stop>
        </linearGradient>
        <linearGradient x1="75.9108802%" y1="4.10237817%" x2="25.8027492%" y2="96.3661446%" id="linearGradient-8">
            <stop stop-color="#F1F1F1" offset="0%"></stop>
            <stop stop-color="#E3E3E3" offset="100%"></stop>
        </linearGradient>
        <linearGradient x1="-18.8193571%" y1="2.25648298%" x2="124.532087%" y2="69.8216735%" id="linearGradient-9">
            <stop stop-color="#4D4D4D" offset="0%"></stop>
            <stop stop-color="#6D6D6D" offset="100%"></stop>
        </linearGradient>
        <linearGradient x1="65.7826468%" y1="34.4916908%" x2="50%" y2="86.4602438%" id="linearGradient-10">
            <stop stop-color="#FDFDFD" offset="0%"></stop>
            <stop stop-color="#E4DFFF" offset="100%"></stop>
        </linearGradient>
        <radialGradient cx="25.0872331%" cy="40.5800698%" fx="25.0872331%" fy="40.5800698%" r="158.580627%" gradientTransform="translate(0.250872,0.405801),scale(0.527778,1.000000),rotate(26.483212),translate(-0.250872,-0.405801)" id="radialGradient-11">
            <stop stop-color="#EBEBF3" offset="0%"></stop>
            <stop stop-color="#B5B4C7" offset="100%"></stop>
        </radialGradient>
        <linearGradient x1="50%" y1="49.2073211%" x2="51.0711958%" y2="52.5107275%" id="linearGradient-12">
            <stop stop-color="#9683FF" offset="0%"></stop>
            <stop stop-color="#7F68FF" offset="100%"></stop>
        </linearGradient>
    </defs>
    <g id="hi-fi-design" stroke="none" stroke-width="1" fill="none" fill-rule="evenodd">
        <g id="01-sign-up" transform="translate(-30.000000, -586.000000)">
            <g id="Group-4-Copy" transform="translate(31.000000, 586.000000)">
                <g id="Group" transform="translate(150.769769, 120.759853)">
                    <path d="M8.16378547,79.3275669 L18.4043722,83.8789388 L37.7477026,98.6708973 L42.2990744,99.8087403 L42.2990744,103.222269 L24.494322,103.222269 C22.7491606,103.222269 21.0430463,102.705699 19.5909842,101.737658 L9.56951927,95.0566813 C6.69150238,93.1380034 5.3641324,89.5929615 6.27424125,86.2558957 L8.16378547,79.3275669 L8.16378547,79.3275669 Z" id="Path-19-Copy" fill="#E8C9B2" transform="translate(23.524665, 91.274918) rotate(14.000000) translate(-23.524665, -91.274918) "></path>
                    <path d="M19.3146465,3.23431863 C5.66053094,25.232616 3.38484501,47.6101943 12.4875887,70.3670536 C26.1417043,104.502343 36.382291,11.1992194 30.6930762,5.51000456 C26.9002663,1.71719468 23.1074564,0.958632698 19.3146465,3.23431863 Z" id="Path-10-Copy" fill="#5643BD" transform="translate(19.661475, 39.905122) rotate(11.000000) translate(-19.661475, -39.905122) "></path>
                    <path d="M7.0259425,66.8112943 C9.62976342,69.9200779 11.8770051,71.7619652 13.7676676,72.3369561 C15.6583301,72.9119471 17.2655334,72.242279 18.5892775,70.327952 L17.383875,80.7747734 C16.7021161,82.5115461 15.4967136,83.4490813 13.7676676,83.5873791 C12.0386217,83.7256769 9.79137994,83.0643015 7.0259425,81.6032529 L7.0259425,66.8112943 Z" id="Path-18-Copy" fill="#5643BD"></path>
                </g>
                <g id="Group-13" transform="translate(82.000000, 0.000000)">
                    <path d="M54.5776105,6.83501091 C49.4186316,-0.790925269 42.9699079,-2.03557288 35.2314395,3.10106807 C23.6237368,10.8060295 5.0514126,8.49454106 1.18217839,23.9044639 C-1.39731109,34.1777458 4.27756576,37.7733945 18.2068089,34.6914099 C20.4465533,43.8496686 23.5419407,47.4453172 27.492971,45.4783559 C31.4440014,43.5113946 34.0234909,36.3200972 35.2314395,23.9044639 C37.6069012,29.5745993 39.6704928,33.42708 41.4222142,35.4619061 C43.1739356,37.4967321 45.7534251,38.7808923 49.1606826,39.3143868 L54.5776105,6.83501091 Z" id="Path-17" fill="url(#linearGradient-1)"></path>
                    <path d="M63.1922173,45.9680329 C78.0993184,45.1931751 76.5301499,33.2587993 76.5301499,24.2720141 C76.5301499,15.2852289 69.1534727,8 60.0538802,8 C50.9542877,8 43.5776105,15.2852289 43.5776105,24.2720141 C43.5776105,33.2587993 48.2851162,46.7428907 63.1922173,45.9680329 Z" id="Oval" fill="url(#radialGradient-2)"></path>
                    <path d="M63.0313921,19.2556765 C63.5495993,22.8944896 65.8815321,25.2337266 70.0271904,26.2733875 C74.1728486,27.3130484 77.0229887,26.2733875 78.5776105,23.1544048 C78.5776105,11.7181349 73.3955377,6 63.0313921,6 C52.6672464,6 45.9305517,9.63881315 42.821308,16.9164394 C40.7484789,24.7138962 41.2666862,30.1721159 44.3759299,33.2910986 C46.3744145,35.295843 50.6907228,32.9152212 55.2582828,27.8328789 C56.9507181,25.9496994 59.5417545,23.0906319 63.0313921,19.2556765 Z" id="Path-16" fill="url(#radialGradient-3)"></path>
                    <path d="M42.8633991,16 C42.3168978,12.7025474 42.5541849,10.243088 43.5752605,8.62162162 C44.5963361,7.00015525 47.087851,5.12628138 51.0498054,3 C52.5220634,3.43289304 53.4712119,3.90136151 53.897251,4.40540541 C54.3232901,4.9094493 54.5500766,5.8322215 54.5776105,7.173722 C52.0426441,7.72813117 50.036204,8.56211573 48.5582904,9.67567568 C47.0803768,10.7892356 45.1820797,12.8973437 42.8633991,16 Z" id="Path-23" fill="url(#linearGradient-4)"></path>
                    <ellipse id="Oval" fill="#FFDFC7" cx="47.0776105" cy="31.5" rx="3.5" ry="5.5"></ellipse>
                    <polygon id="Path-33" fill="#FFFFFF" points="46.5776105 33.4 51.0776105 39 52.5776105 36.2 46.5776105 32"></polygon>
                    <line x1="46.4526105" y1="30.1818182" x2="45.7026105" y2="33.8181818" id="Line-3" stroke="#A07A5E" stroke-width="0.5" stroke-linecap="square"></line>
                    <polygon id="Path-42" fill="#FFDDD2" transform="translate(76.577611, 35.000000) scale(-1, 1) translate(-76.577611, -35.000000) " points="78.5776105 32 74.5776105 38 78.5776105 38"></polygon>
                </g>
                <path d="M110.006307,126.127627 C112.340598,73.5106193 123.846592,48.1304331 144.524287,49.9870683 C157.180879,51.1234946 159.04265,71.8116136 157.180879,80.670577 C156.068762,85.9624236 146.970544,93.4966351 142.223088,104.535528 C141.658018,105.849441 143.336989,107.779545 147.260001,110.32584 L110.006307,126.127627 Z" id="Path-7" fill="url(#linearGradient-5)"></path>
                <path d="M110.006307,128.389207 C115.338114,147.337584 136.284503,151.506227 172.845471,140.895136 C209.40644,130.284045 201.408728,120.430889 148.852336,111.335668 L110.006307,128.389207 Z" id="Path-9" fill="#7F68FF"></path>
                <path d="M183.622545,123.9998 C170.097302,146.094819 167.843095,168.570787 176.859924,191.427704 C190.385166,225.713079 200.529098,131.99972 194.89358,126.285491 C191.136568,122.476005 187.379557,121.714108 183.622545,123.9998 Z" id="Path-10" fill="url(#linearGradient-6)"></path>
                <path d="M166.062104,94.0977743 C153.23226,93.3448873 146.062642,90.3333393 144.553248,85.0631304 C143.043855,79.7929215 145.685293,75.2755995 152.477564,71.5111646 C159.269834,77.5342605 163.798014,81.2986955 166.062104,82.8044694 C168.326194,84.3102434 179.646644,85.4395739 200.023455,86.1924609 L215.872086,79.416478 L224.928446,86.1924609 L222.664356,88.4511219 L215.872086,85.0631304 C209.489777,90.5440225 205.716293,93.5555705 204.551635,94.0977743 C203.386977,94.6399781 201.122887,93.8870911 197.759365,91.8391133 L166.062104,94.0977743 Z" id="Path-11" fill="url(#linearGradient-7)"></path>
                <path d="M100.903563,152.279621 C81.1809514,117.197739 71.3196457,90.1236774 71.3196457,71.0574371 C71.3196457,42.4580766 83.8359184,60.7396678 86.1116043,68.7474887 C87.6287282,74.086036 96.731472,100.404781 113.419835,147.703723 L163.464005,147.703723 C167.874453,147.703723 171.449827,151.279097 171.449827,155.689545 L171.449827,155.689545 L171.449827,155.689545 L104.335486,155.710474 C102.440678,155.711065 100.904154,154.175498 100.903563,152.280691 C100.903563,152.280334 100.903563,152.279977 100.903563,152.279621 L100.903563,152.279621 L100.903563,152.279621 Z" id="Path-12" fill="#EAEAEA"></path>
                <g id="Group-2" transform="translate(97.490034, 155.711544)">
                    <polygon id="Path-13" fill="#DBDBDB" points="32.997446 0 32.997446 43.2380327 40.9623467 43.2380327 40.9623467 0"></polygon>
                    <polygon id="Path-13" fill="#C5C5C5" points="32.997446 0 32.997446 13.6541156 40.9623467 13.6541156 40.9623467 0"></polygon>
                    <polygon id="Path-14" fill="#DBDBDB" points="0 72.8219498 7.62090172 43.2380327 66.0478149 43.2380327 72.8219498 72.8219498 66.0478149 72.8219498 61.8139806 51.3991133 12.7015029 51.3991133 7.62090172 72.8219498"></polygon>
                </g>
                <path d="M177.139042,192.122519 C179.559089,193.999149 181.385566,194.99358 182.618473,195.105813 C183.85138,195.218046 185.592517,194.548378 187.841884,193.096809 L187.379628,209.190163 L177.139042,209.190163 L177.139042,192.122519 Z" id="Path-18" fill="#7F68FF"></path>
                <path d="M176.993262,205.552634 C178.599593,206.958335 180.072863,207.89587 181.413071,208.36524 C182.753279,208.83461 184.742131,209.109584 187.379628,209.190163 L206.722959,223.982122 L211.27433,225.119965 L211.27433,228.533494 L190.793157,228.533494 L175.913166,218.613499 C174.608882,217.743977 174.01333,216.133144 174.438288,214.624292 L176.993262,205.552634 L176.993262,205.552634 Z" id="Path-19" fill="#FFDFC7"></path>
                <path d="M208.343652,97.1495188 L252.236677,78.3382224 L252.236677,78.3382224 L261.963353,24.3011326 C262.241752,22.7544738 263.721253,21.7263458 265.267912,22.0047444 C265.285931,22.0079878 265.303918,22.011405 265.321871,22.0149956 C266.897899,22.3302012 267.926616,23.8551888 267.628621,25.4345613 L257.231802,80.537703 C256.954959,82.0049715 255.956,83.2332667 254.575932,83.8032947 L204.447273,104.508611 L204.447273,104.508611 L204.447273,103.05853 C204.447273,100.486824 205.979881,98.1625634 208.343652,97.1495188 Z" id="Path-20" fill="url(#linearGradient-8)"></path>
                <polygon id="Path-21" fill="url(#linearGradient-9)" points="246.547462 88.5788091 268.166479 104.508611 277.269222 104.508611 253.37452 85.1652802"></polygon>
                <rect id="Rectangle" fill="#7F68FF" x="171.449827" y="104.508611" width="143.368214" height="7.96490076" rx="1.60720328"></rect>
                <polygon id="Path-22" fill="#7F68FF" points="220.377074 112.473511 207.860802 228.533494 222.65276 228.533494 232.893347 112.473511"></polygon>
                <polygon id="Path-22" fill="#7F68FF" transform="translate(305.715297, 170.503503) scale(-1, 1) translate(-305.715297, -170.503503) " points="305.715297 112.473511 293.199024 228.533494 307.990983 228.533494 318.231569 112.473511"></polygon>
                <polygon id="Path-24" fill-opacity="0.50076486" fill="#7F68FF" style="mix-blend-mode: multiply;" points="220.38775 112.334844 218.780547 125.996072 231.638173 125.996072 232.843576 112.334844"></polygon>
                <path d="M139.415032,91.992338 C137.185666,88.3442036 136.034347,86.4629334 135.961075,86.3485273 C125.533483,70.0669927 128.302223,59.5246626 138.263713,58.1294739 C154.382182,55.8719496 144.020309,68.2883331 154.382182,71.6746195" id="Path-8" fill="url(#linearGradient-10)"></path>
                <polygon id="Path-24" fill-opacity="0.50076486" fill="#7F68FF" style="mix-blend-mode: multiply;" transform="translate(300.351440, 119.231235) scale(-1, 1) translate(-300.351440, -119.231235) " points="295.133356 112.334844 293.5155 126.127627 306.383779 125.996072 307.187381 112.334844"></polygon>
                <path d="M284.972529,233.428532 C282.090311,223.601284 285.915046,214.725678 302.499245,210.734217 C313.928704,207.98339 324.685842,208.327244 334.770659,211.765776 C335.375678,209.737078 336.38416,208.361665 337.796104,207.639537 C344.468376,204.227057 349.597931,203.384667 353.931812,203.513298 C360.078652,203.695738 364.243361,207.660869 365.651064,214.860456 C368.340349,228.614586 356.366078,237.898625 329.728251,242.71257 C303.92503,250.277342 289.006456,247.182663 284.972529,233.428532 Z" id="Path-25" fill="url(#radialGradient-11)"></path>
                <path d="M339.850586,209.992235 L338.274296,205.943848 C337.818282,204.772667 338.39804,203.453565 339.569221,202.997551 C340.088162,202.795495 340.66318,202.790738 341.185393,202.98418 L351.229015,206.704621 L351.229015,206.704621 C349.744237,208.448669 348.227113,209.544541 346.677643,209.992235 C345.128173,210.43993 342.852487,210.43993 339.850586,209.992235 Z" id="Path-26" fill="#A19FBB"></path>
                <path d="M366.633623,213.741535 L367.933178,212.790456 C368.947407,212.048194 369.167878,210.624276 368.425616,209.610048 C368.036343,209.078146 367.435572,208.741153 366.778732,208.686255 L359.193916,208.05232 L359.193916,208.05232 C359.627762,209.63805 360.35124,210.818282 361.36435,211.593017 C362.37746,212.367752 364.133885,213.083925 366.633623,213.741535 Z" id="Path-26" fill="#A19FBB"></path>
                <path d="M277.269222,249.014667 L277.269222,227.395651 C297.522827,232.199877 312.883707,234.60199 323.351863,234.60199 C333.820018,234.60199 349.180898,232.199877 369.434503,227.395651 L369.434503,249.014667 L277.269222,249.014667 Z" id="Path-27" fill="url(#linearGradient-12)"></path>
                <polygon id="Path-31" fill="#E9D8C3" points="215.825702 85.1652802 213.550016 87.4409661 218.101388 90.854495 221.514917 90.854495"></polygon>
                <line x1="0.200900411" y1="228.455281" x2="243.290397" y2="228.455281" id="Line" stroke="#F3CC8F" stroke-width="0.803601642" stroke-linecap="round"></line>
                <line x1="257.956127" y1="249.549824" x2="399.590917" y2="249.348924" id="Line-Copy" stroke="#F3CC8F" stroke-width="0.803601642" stroke-linecap="round"></line>
                <line x1="231.135922" y1="257.887191" x2="239.171931" y2="257.875793" id="Line-Copy-2" stroke="#F3CC8F" stroke-width="0.803601642" stroke-linecap="round"></line>
                <line x1="252.130015" y1="262.61975" x2="260.166024" y2="262.608351" id="Line-Copy-3" stroke="#F3CC8F" stroke-width="0.803601642" stroke-linecap="round"></line>
                <g id="Group-3-Copy" transform="translate(300.391134, 83.306140) scale(-1, 1) translate(-300.391134, -83.306140) translate(290.391134, 61.306140)">
                    <path d="M9.10274372,27.3082312 C6.82705779,18.5358071 6.82705779,10.3482113 9.10274372,2.74544382 C11.3784297,-4.85732369 12.5162726,3.33027209 12.5162726,27.3082312 L9.10274372,27.3082312 Z" id="Path-34-Copy" fill="#A6BB6A" transform="translate(9.956126, 13.654116) scale(-1, 1) translate(-9.956126, -13.654116) "></path>
                    <path d="M4.55137186,28.5198232 C3.03424791,22.8306084 3.03424791,17.5206745 4.55137186,12.5900217 C6.06849581,7.65936885 6.82705779,12.9693027 6.82705779,28.5198232 L4.55137186,28.5198232 Z" id="Path-34" fill="#D1E0A4"></path>
                    <rect id="Rectangle" fill="#F6F6F6" x="0" y="26.1703882" width="19.3433304" height="17.0676445"></rect>
                    <path d="M0,31.2906815 C4.29851787,33.1870865 7.52240627,34.135289 9.6716652,34.135289 C11.8209241,34.135289 15.0448125,33.1870865 19.3433304,31.2906815 L19.3433304,43.2380327 L0,43.2380327 L0,31.2906815 Z" id="Rectangle" fill="#F5DFBC"></path>
                    <path d="M14.2230371,26.2441373 C12.7059131,22.7717194 12.7059131,19.5307961 14.2230371,16.5213673 C15.740161,13.5119385 16.498723,16.7528618 16.498723,26.2441373 L14.2230371,26.2441373 Z" id="Path-34-Copy-2" fill="#D1E0A4"></path>
                </g>
            </g>
        </g>
    </g>
</svg>