<?xml version="1.0" encoding="UTF-8"?>
<svg width="50px" height="27px" viewBox="0 0 50 27" version="1.1" xmlns="http://www.w3.org/2000/svg" xmlns:xlink="http://www.w3.org/1999/xlink">
    <!-- Generator: Sketch 63.1 (92452) - https://sketch.com -->
    <title>noun_Heart_1039922</title>
    <desc>Created with Sketch.</desc>
    <g id="design" stroke="none" stroke-width="1" fill="none" fill-rule="evenodd">
        <g id="landing-page" transform="translate(-1187.000000, -928.000000)">
            <g id="noun_Heart_1039922" transform="translate(1187.000000, 928.000000)">
                <path d="M41.268,12.989 C41.2134841,12.9187027 41.175541,12.8370054 41.157,12.75 C40.686,10.599 39.736,6.912 39.193,6.179 C37.4222126,4.30611044 35.4372369,2.64804825 33.279,1.239 C31.4604304,1.76849618 29.6729616,2.39948536 27.925,3.129 C27.7529094,3.23781801 27.5900304,3.36056253 27.438,3.496 C29.315,2.766 32.157,1.724 33.032,1.796 C34.144,1.859 36.592,4.947 38.449,7.526 C38.574043,7.70016697 38.5966705,7.92781353 38.5083589,8.1231874 C38.4200474,8.31856127 38.2342134,8.45198052 38.0208589,8.4731874 C37.8075044,8.49439429 37.599043,8.40016698 37.474,8.226 C35.763,5.849 33.537,3.17 32.926,2.987 L32.9,2.987 C30.7821765,3.50728901 28.7113551,4.20302612 26.709,5.067 C25.509,6.944 25.455,8.044 25.809,8.451 C26.0944419,8.71237686 26.5102104,8.77375221 26.859,8.606 C27.2974031,8.12225892 27.5924245,7.5259833 27.711,6.884 C27.7939251,6.57340459 28.1036644,6.38047378 28.419,6.443 C29.8122381,6.43292874 31.1905618,6.15522707 32.479,5.625 C32.7543081,5.52417852 33.0621608,5.63708601 33.207,5.892 L36.007,10.815 C36.0739423,10.9329188 36.0989688,11.0700357 36.078,11.204 C36.03,11.518 35.557,14.297 33.941,15.017 C33.0591816,15.3199413 32.1488264,15.5323687 31.224,15.651 C29.575,15.939 27.524,16.298 26.793,16.951 C26.1697806,17.4720841 25.8534791,18.2737576 25.953,19.08 C25.996,19.25 26.061,19.316 26.081,19.32 C26.341,19.386 26.458,19.32 26.845,19.005 C27.0677219,18.8127026 27.3120255,18.6469252 27.573,18.511 C28.398,18.111 33.585,17.471 35.292,18.754 C36.3320597,19.3195676 37.5013337,19.6049077 38.685,19.582 L38.699,19.582 C38.890149,19.5819075 39.0699035,19.672899 39.183,19.827 L39.618,20.421 L44.247,16.986 C43.717,16.244 42.591,14.7 41.268,12.989 Z" id="Path"></path>
                <path d="M31.027,14.472 C31.8537642,14.3631074 32.669052,14.1800358 33.463,13.925 C34.254,13.572 34.716,11.983 34.863,11.225 L32.415,6.925 C31.2295266,7.34821934 29.9903587,7.60238174 28.734,7.68 C28.5364767,8.4886097 28.059792,9.20151186 27.388,9.693 C26.6011952,10.0664133 25.667103,9.93077479 25.019,9.349 C24.3712126,9.93060038 23.4374975,10.0662414 22.651,9.693 C21.9785816,9.20192083 21.5014613,8.48889694 21.304,7.68 C20.0482468,7.60027972 18.8096992,7.34617552 17.624,6.925 L15.174,11.225 C15.358,12.178 15.859,13.604 16.574,13.925 C17.367948,14.1800358 18.1832358,14.3631074 19.01,14.472 C20.904,14.804 23.05,15.179 24.034,16.063 C24.4577076,16.4421974 24.7923572,16.9103654 25.014,17.434 C25.2376471,16.9099394 25.5743414,16.4417773 26,16.063 C26.987,15.179 29.133,14.8 31.027,14.472 Z" id="Path"></path>
                <path d="M18.81,15.654 C17.8851736,15.5353687 16.9748184,15.3229413 16.093,15.02 C14.477,14.299 14.004,11.52 13.956,11.207 C13.9350312,11.0730357 13.9600577,10.9359188 14.027,10.818 L16.827,5.895 C16.9718392,5.64008601 17.2796919,5.52717852 17.555,5.628 C18.843264,6.15764867 20.2211475,6.43533004 21.614,6.446 C21.9302961,6.37809536 22.2434787,6.57317092 22.322,6.887 C22.4404557,7.52922483 22.7358811,8.125617 23.175,8.609 C23.5234825,8.77658142 23.9388747,8.71520316 24.224,8.454 C24.581,8.047 24.524,6.947 23.324,5.07 C21.3093048,4.1932313 19.2194646,3.50041112 17.08,3 C16.506,3.179 14.28,5.857 12.569,8.234 C12.3757003,8.5032388 12.0007388,8.56479964 11.7315,8.37149998 C11.4622612,8.17820032 11.4007004,7.80323882 11.594,7.534 C13.451,4.955 15.894,1.867 17.011,1.804 C17.031,1.804 17.051,1.804 17.073,1.804 C18.9665447,2.17298197 20.8153344,2.74287182 22.588,3.504 C22.4138049,3.35195447 22.227149,3.2148059 22.03,3.094 C20.2931997,2.36504157 18.5103553,1.75105096 16.693,1.256 C14.5702267,2.68019265 12.6107495,4.33382646 10.85,6.187 C10.307,6.921 9.357,10.608 8.886,12.759 C8.86745903,12.8460054 8.82951592,12.9277027 8.775,12.998 C7.452,14.711 6.326,16.253 5.788,16.998 L10.417,20.433 L10.852,19.839 C10.9650965,19.684899 11.144851,19.5939075 11.336,19.594 L11.35,19.594 C12.5336562,19.6168157 13.702907,19.3314813 14.743,18.766 C16.443,17.483 21.637,18.119 22.461,18.523 C22.7227621,18.66051 22.9674428,18.8283294 23.19,19.023 C23.577,19.335 23.69,19.401 23.954,19.337 C23.974,19.337 24.039,19.267 24.082,19.097 C24.1810926,18.2906028 23.8644359,17.4889832 23.241,16.968 C22.512,16.3 20.459,15.942 18.81,15.654 Z" id="Path"></path>
                <polygon id="Path" points="10.191 21.751 10.19 21.75 4.081 17.218 1.95 20.091 8.546 24.985 10.678 22.112 10.192 21.751"></polygon>
                <polygon id="Path" points="39.853 21.75 39.853 21.751 39.852 21.751 39.366 22.112 41.497 24.985 48.094 20.091 45.962 17.218"></polygon>
                <path d="M46.568,16.021 C46.3704683,15.755225 45.9949677,15.6997279 45.729,15.897 L45.219,16.275 C44.683,15.533 43.59,14.036 42.299,12.362 C42.075,11.355 40.985,6.582 40.157,5.462 C39.464,4.525 34.505,0.109 33.406,0.046 C32.606,-0.012 29.006,1.404 27.395,2.053 C27.183,2.18 25.476,3.253 25.67,4.49 C25.4311992,4.86607355 25.2144992,5.25573301 25.021,5.657 C24.8275008,5.25573301 24.6108008,4.86607355 24.372,4.49 C24.565,3.249 22.852,2.177 22.559,2.01 C21.032,1.41 17.403,-0.009 16.636,0.046 C15.536,0.109 10.578,4.525 9.885,5.461 C9.058,6.578 7.967,11.352 7.743,12.361 C6.452,14.035 5.359,15.532 4.823,16.274 L4.313,15.896 C4.0470323,15.6987279 3.67153166,15.754225 3.474,16.02 L0.629,19.857 C0.431727931,20.1229677 0.487225046,20.4984683 0.753,20.696 L8.313,26.305 C8.5789677,26.5022721 8.95446834,26.446775 9.152,26.181 L12,22.346 C12.1972721,22.0800323 12.141775,21.7045317 11.876,21.507 L11.382,21.141 L11.647,20.779 C12.9913851,20.7702679 14.3091986,20.40371 15.465,19.717 C16.629,18.839 21.25,19.27 21.932,19.592 C22.1114545,19.6896339 22.2792026,19.8073931 22.432,19.943 C22.8978583,20.4271096 23.5816734,20.6346017 24.238,20.491 C24.5678599,20.402495 24.8491131,20.1866998 25.02,19.891 C25.1909709,20.1866261 25.4721895,20.4023949 25.802,20.491 C26.4584704,20.6335496 27.1419277,20.4257876 27.608,19.942 C27.7613461,19.8073745 27.9290186,19.6900037 28.108,19.592 C28.792,19.271 33.408,18.838 34.577,19.717 C35.7342658,20.4044395 37.0539747,20.7706993 38.4,20.778 L38.665,21.14 L38.171,21.507 C37.905225,21.7045317 37.8497279,22.0800323 38.047,22.346 L40.895,26.182 C41.0925317,26.447775 41.4680323,26.5032721 41.734,26.306 L49.29,20.7 C49.555775,20.5024683 49.6112721,20.1269677 49.414,19.861 L46.568,16.021 Z M8.546,24.985 L1.946,20.09 L4.078,17.217 L10.19,21.75 L10.19,21.75 L10.676,22.111 L8.546,24.985 Z M24.081,19.085 C24.038,19.255 23.973,19.321 23.953,19.325 C23.692,19.388 23.576,19.325 23.189,19.011 C22.9664428,18.8163294 22.7217621,18.64851 22.46,18.511 C21.636,18.111 16.446,17.471 14.742,18.754 C13.701907,19.3194813 12.5326562,19.6048157 11.349,19.582 L11.335,19.582 C11.143851,19.5819075 10.9640965,19.672899 10.851,19.827 L10.416,20.421 L5.788,16.99 C6.327,16.245 7.453,14.702 8.775,12.99 C8.82951592,12.9197027 8.86745903,12.8380054 8.886,12.751 C9.357,10.6 10.307,6.913 10.85,6.179 C12.6107495,4.32582646 14.5702267,2.67219265 16.693,1.248 C18.5103553,1.74305096 20.2931997,2.35704157 22.03,3.086 C22.227149,3.2068059 22.4138049,3.34395447 22.588,3.496 C20.8153344,2.73487182 18.9665447,2.16498197 17.073,1.796 C17.052,1.796 17.031,1.796 17.011,1.796 C15.899,1.859 13.451,4.947 11.594,7.526 C11.4007003,7.79523882 11.4622612,8.17020034 11.7315,8.3635 C12.0007388,8.55679966 12.3757003,8.49523882 12.569,8.226 C14.28,5.849 16.506,3.17 17.08,2.992 C19.2216384,3.49335796 21.3135048,4.18752293 23.33,5.066 C24.53,6.943 24.584,8.043 24.23,8.45 C23.9448747,8.71120316 23.5294825,8.77258142 23.181,8.605 C22.7418811,8.121617 22.4464557,7.52522483 22.328,6.883 C22.2494787,6.56917092 21.9362961,6.37409536 21.62,6.442 C20.2271475,6.43133004 18.849264,6.15364867 17.561,5.624 C17.2856919,5.52317852 16.9778392,5.63608601 16.833,5.891 L14.033,10.814 C13.9660577,10.9319188 13.9410312,11.0690357 13.962,11.203 C14.01,11.517 14.483,14.296 16.099,15.016 C16.9808184,15.3189413 17.8911736,15.5313687 18.816,15.65 C20.465,15.938 22.516,16.297 23.247,16.95 C23.8694418,17.4734862 24.1835379,18.2771805 24.081,19.084 L24.081,19.085 Z M25.021,17.435 C24.7993572,16.9113654 24.4647076,16.4431974 24.041,16.064 C23.057,15.18 20.91,14.805 19.017,14.473 C18.1902358,14.3641074 17.374948,14.1810358 16.581,13.926 C15.861,13.605 15.36,12.179 15.181,11.226 L17.631,6.926 C18.8166992,7.34717552 20.0552468,7.60127972 21.311,7.681 C21.5084613,8.48989694 21.9855816,9.20292083 22.658,9.694 C23.4444975,10.0672414 24.3782126,9.93160038 25.026,9.35 C25.674103,9.93177479 26.6081952,10.0674133 27.395,9.694 C28.066792,9.20251186 28.5434767,8.4896097 28.741,7.681 C29.9973587,7.60338174 31.2365266,7.34921934 32.422,6.926 L34.87,11.226 C34.72,11.985 34.258,13.575 33.47,13.926 C32.676052,14.1810358 31.8607642,14.3641074 31.034,14.473 C29.14,14.805 26.994,15.18 26.01,16.064 C25.5837364,16.4422825 25.2463557,16.910108 25.022,17.434 L25.021,17.435 Z M39.191,19.835 C39.0779035,19.680899 38.898149,19.5899075 38.707,19.59 L38.693,19.59 C37.5093337,19.6129077 36.3400597,19.3275676 35.3,18.762 C33.593,17.479 28.406,18.115 27.581,18.519 C27.3200255,18.6549252 27.0757219,18.8207026 26.853,19.013 C26.466,19.326 26.353,19.395 26.089,19.328 C26.069,19.328 26.004,19.258 25.961,19.088 C25.8614791,18.2817576 26.1777806,17.4800841 26.801,16.959 C27.53,16.306 29.582,15.946 31.232,15.659 C32.1568264,15.5403687 33.0671816,15.3279413 33.949,15.025 C35.565,14.304 36.038,11.525 36.086,11.212 C36.1069688,11.0780357 36.0819423,10.9409188 36.015,10.823 L33.215,5.9 C33.0701608,5.64508601 32.7623081,5.53217852 32.487,5.633 C31.1985618,6.16322707 29.8202381,6.44092874 28.427,6.451 C28.1116644,6.38847378 27.8019251,6.58140459 27.719,6.892 C27.6004245,7.5339833 27.3054031,8.13025892 26.867,8.614 C26.5182104,8.78175221 26.1024419,8.72037686 25.817,8.459 C25.46,8.052 25.517,6.952 26.717,5.075 C28.7193551,4.21102612 30.7901765,3.51528901 32.908,2.995 L32.929,2.995 C33.54,3.179 35.766,5.857 37.477,8.234 C37.6702997,8.50323882 38.0452612,8.56479966 38.3145,8.3715 C38.5837388,8.17820034 38.6452997,7.80323882 38.452,7.534 C36.595,4.955 34.152,1.867 33.035,1.804 C32.16,1.727 29.318,2.77 27.441,3.504 C27.5930304,3.36856253 27.7559094,3.24581801 27.928,3.137 C29.6759616,2.40748536 31.4634304,1.77649618 33.282,1.247 C35.4402369,2.65604825 37.4252126,4.31411044 39.196,6.187 C39.739,6.92 40.689,10.607 41.16,12.758 C41.178541,12.8450054 41.2164841,12.9267027 41.271,12.997 C42.594,14.709 43.72,16.252 44.258,16.997 L39.629,20.432 L39.191,19.835 Z M41.5,24.985 L39.368,22.112 L39.854,21.751 L39.854,21.751 L45.963,17.219 L48.095,20.092 L41.5,24.985 Z" id="Shape" fill="#7F68FF" fill-rule="nonzero"></path>
            </g>
        </g>
    </g>
</svg>