<?xml version="1.0" encoding="UTF-8"?>
<svg width="326px" height="288px" viewBox="0 0 326 288" version="1.1" xmlns="http://www.w3.org/2000/svg" xmlns:xlink="http://www.w3.org/1999/xlink">
    <title>landing_4</title>
    <defs>
        <radialGradient cx="97.2241291%" cy="63.654606%" fx="97.2241291%" fy="63.654606%" r="73.6224121%" gradientTransform="translate(0.972241,0.636546),scale(1.000000,0.746154),rotate(145.115983),translate(-0.972241,-0.636546)" id="radialGradient-1">
            <stop stop-color="#FFF1E5" offset="0%"></stop>
            <stop stop-color="#FFDFC7" offset="100%"></stop>
        </radialGradient>
        <linearGradient x1="48.9185825%" y1="14.370294%" x2="40.9399218%" y2="118.910307%" id="linearGradient-2">
            <stop stop-color="#FFEABF" offset="0%"></stop>
            <stop stop-color="#FDFBF8" offset="100%"></stop>
        </linearGradient>
        <linearGradient x1="50%" y1="32.6875795%" x2="50%" y2="100%" id="linearGradient-3">
            <stop stop-color="#F3CC8F" offset="0%"></stop>
            <stop stop-color="#FFEDC7" offset="100%"></stop>
        </linearGradient>
        <linearGradient x1="54.1178033%" y1="45.8093205%" x2="50%" y2="55.0550854%" id="linearGradient-4">
            <stop stop-color="#FFF1E5" offset="0%"></stop>
            <stop stop-color="#FFDFC7" offset="100%"></stop>
        </linearGradient>
        <radialGradient cx="33.7201375%" cy="22.4716616%" fx="33.7201375%" fy="22.4716616%" r="85.9973104%" gradientTransform="translate(0.337201,0.224717),scale(1.000000,0.981308),rotate(90.000000),translate(-0.337201,-0.224717)" id="radialGradient-5">
            <stop stop-color="#84A5FF" offset="0%"></stop>
            <stop stop-color="#5F77FF" offset="100%"></stop>
        </radialGradient>
        <linearGradient x1="50%" y1="12.905056%" x2="24.6710684%" y2="50%" id="linearGradient-6">
            <stop stop-color="#FDFBF8" offset="0%"></stop>
            <stop stop-color="#FFEABF" offset="100%"></stop>
        </linearGradient>
    </defs>
    <g id="hi-fi-design" stroke="none" stroke-width="1" fill="none" fill-rule="evenodd">
        <g id="landing-page01" transform="translate(-1040.000000, -1828.000000)">
            <g id="landing_4" transform="translate(1040.000000, 1828.000000)">
                <g id="Group" transform="translate(215.078612, 192.714770) scale(-1, 1) rotate(15.000000) translate(-215.078612, -192.714770) translate(189.578612, 130.714770)">
                    <path d="M8.22298354,90.9814597 L20.0206843,96.2248822 L42.3052302,113.266006 L46.2568108,114.253901 C47.0160352,114.443707 47.5486528,115.125871 47.5486528,115.908461 L47.5486528,118.509428 L47.5486528,118.509428 L27.1547977,118.509428 C25.0672279,118.509428 23.0263666,117.891505 21.2894036,116.73353 L5.92688249,106.491849 C4.94960096,105.840328 4.49886901,104.636546 4.80791256,103.503387 L8.22298354,90.9814597 L8.22298354,90.9814597 Z" id="Path-19-Copy" fill="#E8C9B2" transform="translate(25.919535, 104.745444) rotate(14.000000) translate(-25.919535, -104.745444) "></path>
                    <path d="M22.2515006,3.72610716 C6.52123285,29.0693162 3.89952157,54.8494772 14.3863667,81.06659 C30.1166344,120.392259 41.9143352,12.9020967 35.360057,6.34781845 C30.9905382,1.97829964 26.6210194,1.10439588 22.2515006,3.72610716 Z" id="Path-10-Copy" fill="#C59851" transform="translate(22.651065, 45.972824) rotate(11.000000) translate(-22.651065, -45.972824) "></path>
                    <path d="M8.15312394,80.0718666 C10.8442838,80.8909205 12.9761491,81.379076 14.5487198,81.536333 C16.1212905,81.6935901 18.2452707,81.7130197 20.9206605,81.5946217 L19.8919604,96.6330008 L8.09425962,96.6330008 L8.15312394,80.0718666 Z" id="Path-18-Copy" fill="#E8C9B2"></path>
                </g>
                <path d="M243.689774,48.0685675 C259.315624,47.2530715 257.792158,28.7813718 256.661437,21.0463073 C255.530716,13.3112428 251.041287,3.75206079 241.502956,3.75206079 C231.964625,3.75206079 224.23228,11.4193702 224.23228,20.8774757 C224.23228,30.3355812 228.063924,48.8840634 243.689774,48.0685675 Z" id="Oval" fill="url(#radialGradient-1)" transform="translate(240.775457, 25.923329) scale(-1, 1) translate(-240.775457, -25.923329) "></path>
                <polygon id="Path-42" fill="#FFECDC" points="225 26 219 37 225 37"></polygon>
                <path d="M231.284322,140.910132 C233.671015,95.8490814 238.040553,67.4472092 244.392938,55.7045156 C247.771552,49.4589832 255.253211,46 266.253211,50 C280.360515,55.1299288 282.37429,69.7812795 280.253211,80 C278.986197,86.1040889 271.661896,103.266754 266.253211,116 C265.609438,117.515585 267.49867,120.138588 271.920907,123.869009 L231.284322,140.910132 Z" id="Path-7" fill="url(#linearGradient-2)" transform="translate(256.126605, 94.598765) scale(-1, 1) translate(-256.126605, -94.598765) "></path>
                <path d="M183.537394,143.531844 C182.838233,165.704041 202.93802,170.947464 243.836753,159.262111 C253.012743,156.6404 271.138603,159.417058 275.297289,156.6404 C280.866606,152.921896 281.682768,142.568735 280.540711,139.599277 C278.936775,135.428888 260.511771,130.62326 225.2657,125.182392 L183.537394,143.531844 Z" id="Path-9" fill="#F3CC8F" transform="translate(232.253111, 145.247001) scale(-1, 1) translate(-232.253111, -145.247001) "></path>
                <path d="M195.850128,138.288421 C180.11986,163.63163 177.498149,189.411791 187.984994,215.628904 C203.715262,254.954573 214.525815,146.06272 207.971537,139.508442 C203.602018,135.138923 199.561548,134.73225 195.850128,138.288421 Z" id="Path-10" fill="url(#linearGradient-3)" transform="translate(195.806670, 180.031538) scale(-1, 1) translate(-195.806670, -180.031538) "></path>
                <path d="M187.943476,109.180817 C173.087112,108.306913 164.785026,104.811298 163.037219,98.6939719 C161.289411,92.5766456 164.730677,86.1610517 173.361017,79.4471902 C181.28581,86.8490672 186.559063,91.4239094 189.180774,93.1717169 C191.802485,94.9195245 204.498609,97.197228 227.269145,100.004828 L245.621124,92.1396937 L256.107969,100.004828 L253.486258,102.626539 L244.310268,97.3831163 C241.73911,99.9605706 239.672974,101.951799 238.111861,103.356801 C235.77019,105.464305 233.543921,108.289836 231.236225,108.838686 C229.697762,109.204585 227.501498,108.444725 224.647434,106.559106 L187.943476,109.180817 Z" id="Path-11" fill="url(#linearGradient-4)" transform="translate(209.351830, 94.314004) scale(-1, 1) rotate(12.000000) translate(-209.351830, -94.314004) "></path>
                <path d="M242.706593,19.3543658 C249.214196,16.7991124 253.707137,14.6486274 256.185417,12.9029105 C258.663696,11.1571937 259.693329,6.85622348 259.274314,0 C260.047547,1.49598962 254.992988,2.24398443 244.110637,2.24398443 C233.228285,2.24398443 226.747587,5.83943427 224.66854,13.0303339 C222.69158,25.2200773 223.335452,32.9359983 226.600158,36.178097 C228.698566,38.261975 232.931424,29.6606379 237.727362,24.3776795 C239.504418,22.420165 241.164162,20.7457271 242.706593,19.3543658 Z" id="Path-16" fill="url(#radialGradient-5)" transform="translate(241.457650, 18.248659) scale(-1, 1) translate(-241.457650, -18.248659) "></path>
                <polygon id="Path-18" fill="#FFE3CD" transform="translate(197.143142, 226.771177) scale(-1, 1) translate(-197.143142, -226.771177) " points="191.145925 216.939759 203.140358 218.301719 202.504437 236.602594 191.145925 236.602594"></polygon>
                <path d="M170.198244,230.328729 L181.995944,235.322465 L200.027961,253.836589 L204.746953,256.431028 L204.381345,259.408666 C190.404453,258.364193 182.133235,257.348615 179.567691,256.361933 C177.174633,255.441586 173.155906,251.812351 167.511511,245.474226 C166.733982,244.601134 166.457782,243.390657 166.779639,242.266714 L170.198244,230.328729 L170.198244,230.328729 Z" id="Path-19" fill="#FFE3CD" transform="translate(185.506315, 244.868698) scale(-1, 1) rotate(-7.000000) translate(-185.506315, -244.868698) "></path>
                <rect id="Rectangle" fill="#F3CC8F" transform="translate(124.977008, 120.591870) scale(-1, 1) translate(-124.977008, -120.591870) " x="39.771391" y="116.003875" width="170.411233" height="9.17598949" rx="4.58799475"></rect>
                <polygon id="Path-22" fill="#F3CC8F" points="55.5016587 125.179865 41.0822467 258.88714 58.12337 258.88714 69.9210708 125.179865"></polygon>
                <path d="M247.464168,101.282352 C243.681833,97.3220571 241.748954,95.2754785 241.665529,95.1426162 C229.793003,76.2345214 225.907501,62.3508738 237.249927,59.3262268 C256.912762,54.0828043 261.108025,82.1809517 264.177893,84.9097231 C266.224472,86.7289041 260.65323,92.1864471 247.464168,101.282352 Z" id="Path-8" fill="url(#linearGradient-6)" transform="translate(247.534538, 79.979064) scale(-1, 1) translate(-247.534538, -79.979064) "></path>
                <ellipse id="Oval" fill="#FFDFC7" transform="translate(251.519994, 28.311004) scale(-1, 1) translate(-251.519994, -28.311004) " cx="251.519994" cy="28.3110042" rx="3.75206079" ry="5.7986394"></ellipse>
                <line x1="252.031639" y1="25.7837897" x2="251.00835" y2="29.8149293" id="Line-3" stroke="#A07A5E" stroke-width="0.5" stroke-linecap="square" transform="translate(251.519994, 27.799359) scale(-1, 1) translate(-251.519994, -27.799359) "></line>
                <polygon id="Path-24" fill="#F3CC8F" style="mix-blend-mode: multiply;" opacity="0.41250465" points="56.5249481 125.179865 53.9032368 140.910132 68.3226488 140.910132 69.6335045 125.179865"></polygon>
                <polygon id="Rectangle" fill="#B0B0B0" transform="translate(296.406703, 217.015199) scale(-1, 1) rotate(12.000000) translate(-296.406703, -217.015199) " points="293.689985 174.63102 299.631664 173.522328 299.592794 259.14536 293.181742 260.508071"></polygon>
                <rect id="Rectangle-Copy" fill="#B0B0B0" transform="translate(212.869037, 216.939759) scale(-1, 1) translate(-212.869037, -216.939759) " x="210.247326" y="174.992379" width="5.24342257" height="83.8947611"></rect>
                <rect id="Rectangle-Copy" fill="#797979" transform="translate(212.869037, 180.791018) scale(-1, 1) translate(-212.869037, -180.791018) " x="210.247326" y="174.992379" width="5.24342257" height="11.5972788"></rect>
                <polygon id="Rectangle-Copy-2" fill="#797979" transform="translate(288.552247, 180.781111) scale(-1, 1) translate(-288.552247, -180.781111) " points="286.676217 174.982471 292.815952 174.982471 290.428277 186.57975 284.288542 186.57975"></polygon>
                <polygon id="Path-22" fill="#F3CC8F" transform="translate(152.504976, 192.033502) scale(-1, 1) translate(-152.504976, -192.033502) " points="152.504976 125.179865 138.085564 258.88714 155.126688 258.88714 166.924388 125.179865"></polygon>
                <polygon id="Path-24" fill="#F3CC8F" style="mix-blend-mode: multiply;" opacity="0.41250465" transform="translate(145.950698, 133.044998) scale(-1, 1) translate(-145.950698, -133.044998) " points="140.707275 125.179865 138.085564 140.910132 152.504976 140.910132 153.815832 125.179865"></polygon>
                <polygon id="Path-29" fill="#E8E8E8" transform="translate(104.003317, 83.887912) scale(-1, 1) translate(-104.003317, -83.887912) " points="89.5839054 55.7045156 98.7598949 55.7045156 92.2056167 116.003875 118.42273 116.003875 110.557596 55.7045156 110.557596 51.7719486 89.5839054 51.7719486"></polygon>
                <rect id="Rectangle" fill="#8F8F8F" transform="translate(121.210743, 52.427376) scale(-1, 1) rotate(12.000000) translate(-121.210743, -52.427376) " x="117.444479" y="1.95943425" width="7.53252869" height="100.935884"></rect>
                <polygon id="Path-30" fill="#D8D8D8" transform="translate(167.579816, 112.071308) scale(-1, 1) translate(-167.579816, -112.071308) " points="153.815832 113.382164 181.3438 108.138741 181.3438 116.003875 153.815832 116.003875"></polygon>
                <polygon id="Path-32" fill="#E5B5A1" transform="translate(175.890672, 107.827886) scale(-1, 1) translate(-175.890672, -107.827886) " points="175.235244 103.895319 171.302677 106.51703 177.856955 111.760453 180.478667 111.760453"></polygon>
                <g id="Group-12" transform="translate(2.747824, 160.000000)">
                    <path d="M19.6628346,62.9210708 C14.4194121,42.7084722 14.4194121,23.8433802 19.6628346,6.32579474 C24.9062572,-11.1917907 27.5279685,7.67330132 27.5279685,62.9210708 L19.6628346,62.9210708 Z" id="Path-34-Copy" fill="#A6BB6A"></path>
                    <path d="M31.4605354,65.7127078 C27.9649204,52.6041514 27.9649204,40.3694987 31.4605354,29.0087499 C34.9561504,17.648001 36.703958,29.8826536 36.703958,65.7127078 L31.4605354,65.7127078 Z" id="Path-34" fill="#D1E0A4" transform="translate(32.771391, 45.309483) scale(-1, 1) translate(-32.771391, -45.309483) "></path>
                    <rect id="Rectangle" fill="#F6F6F6" transform="translate(22.284546, 79.962194) scale(-1, 1) translate(-22.284546, -79.962194) " x="-6.75015599e-14" y="60.2993595" width="44.5690918" height="39.3256693"></rect>
                    <path d="M-6.75015599e-14,72.0970603 C9.90424263,76.4665791 17.3324246,78.6513385 22.2845459,78.6513385 C27.2366672,78.6513385 34.6648492,76.4665791 44.5690918,72.0970603 L44.5690918,99.6250288 L-6.75015599e-14,99.6250288 L-6.75015599e-14,72.0970603 Z" id="Rectangle" fill="#DAD4FF" transform="translate(22.284546, 85.861045) scale(-1, 1) translate(-22.284546, -85.861045) "></path>
                    <path d="M9.17598949,60.4692853 C5.68037445,52.468465 5.68037445,45.0010327 9.17598949,38.0669885 C12.6716045,31.1329442 14.4194121,38.6003765 14.4194121,60.4692853 L9.17598949,60.4692853 Z" id="Path-34-Copy-2" fill="#D1E0A4" transform="translate(10.486845, 48.016157) scale(-1, 1) translate(-10.486845, -48.016157) "></path>
                </g>
                <path d="M239.021449,155.329544 L210.182624,78.0142702 C219.795566,70.1323305 225.47594,69.2500239 227.223748,75.3673502 C228.971555,81.4846765 239.4584,111.642759 258.684283,165.841598 L316.38714,165.841598 C321.440977,165.841598 325.537921,169.938542 325.537921,174.992379 L325.537921,174.992379 L325.537921,174.992379 L325.47322,181.463304 L243.268979,180.098918 L244.264871,175.017588 L239.021449,155.329544 Z" id="Path-12" fill="#EAEAEA" transform="translate(267.860273, 126.410489) scale(-1, 1) translate(-267.860273, -126.410489) "></path>
                <line x1="129.995649" y1="259.5" x2="255.585146" y2="259" id="Line" stroke="#7F68FF" stroke-width="0.803601642" stroke-linecap="round"></line>
                <line x1="0.700900411" y1="259.926351" x2="84.5" y2="259.5" id="Line-Copy-4" stroke="#7F68FF" stroke-width="0.803601642" stroke-linecap="round"></line>
                <line x1="85" y1="287.197393" x2="139.504811" y2="287" id="Line-Copy-5" stroke="#7F68FF" stroke-width="0.803601642" stroke-linecap="round"></line>
            </g>
        </g>
    </g>
</svg>