<?xml version="1.0" encoding="UTF-8"?>
<svg width="340px" height="396px" viewBox="0 0 340 396" version="1.1" xmlns="http://www.w3.org/2000/svg" xmlns:xlink="http://www.w3.org/1999/xlink">
    <title>Group 14</title>
    <defs>
        <linearGradient x1="50%" y1="0%" x2="50%" y2="100%" id="linearGradient-1">
            <stop stop-color="#FFF1E5" offset="0%"></stop>
            <stop stop-color="#FFDFC7" offset="100%"></stop>
        </linearGradient>
        <linearGradient x1="50.6933555%" y1="71.0951501%" x2="50%" y2="100%" id="linearGradient-2">
            <stop stop-color="#F3CC8F" offset="0%"></stop>
            <stop stop-color="#FFEDC7" offset="100%"></stop>
        </linearGradient>
        <radialGradient cx="70.6638212%" cy="56.7028364%" fx="70.6638212%" fy="56.7028364%" r="68.5428914%" gradientTransform="translate(0.706638,0.567028),scale(1.000000,0.771049),rotate(161.083733),translate(-0.706638,-0.567028)" id="radialGradient-3">
            <stop stop-color="#FFDFC7" offset="0%"></stop>
            <stop stop-color="#FFF1E5" offset="100%"></stop>
        </radialGradient>
        <linearGradient x1="33.7201375%" y1="32.9616287%" x2="100%" y2="94.9965613%" id="linearGradient-4">
            <stop stop-color="#84A5FF" offset="0%"></stop>
            <stop stop-color="#5F77FF" offset="100%"></stop>
        </linearGradient>
        <linearGradient x1="50%" y1="58.0830382%" x2="50%" y2="100%" id="linearGradient-5">
            <stop stop-color="#7F68FF" offset="0%"></stop>
            <stop stop-color="#B6A1FF" offset="100%"></stop>
        </linearGradient>
        <radialGradient cx="97.2241291%" cy="63.654606%" fx="97.2241291%" fy="63.654606%" r="71.9949815%" gradientTransform="translate(0.972241,0.636546),scale(1.000000,0.801653),rotate(147.019345),translate(-0.972241,-0.636546)" id="radialGradient-6">
            <stop stop-color="#FFF1E5" offset="0%"></stop>
            <stop stop-color="#FFDFC7" offset="100%"></stop>
        </radialGradient>
        <linearGradient x1="33.7201375%" y1="27.1283466%" x2="100%" y2="110.401651%" id="linearGradient-7">
            <stop stop-color="#84A5FF" offset="0%"></stop>
            <stop stop-color="#5F77FF" offset="100%"></stop>
        </linearGradient>
        <linearGradient x1="53.3636047%" y1="17.3637392%" x2="50%" y2="100%" id="linearGradient-8">
            <stop stop-color="#FCFAFF" offset="0%"></stop>
            <stop stop-color="#E4DFFF" offset="100%"></stop>
        </linearGradient>
        <linearGradient x1="50.4303187%" y1="17.3637392%" x2="50%" y2="100%" id="linearGradient-9">
            <stop stop-color="#FDFDFD" offset="0%"></stop>
            <stop stop-color="#F4F2FF" offset="100%"></stop>
        </linearGradient>
        <linearGradient x1="50%" y1="0%" x2="50%" y2="100%" id="linearGradient-10">
            <stop stop-color="#FDFBF8" offset="0%"></stop>
            <stop stop-color="#FFEABF" offset="100%"></stop>
        </linearGradient>
        <linearGradient x1="81.7350117%" y1="50%" x2="10.8430331%" y2="52.2975977%" id="linearGradient-11">
            <stop stop-color="#FFEBC3" offset="0%"></stop>
            <stop stop-color="#FDF7EB" offset="100%"></stop>
        </linearGradient>
        <radialGradient cx="88.5103189%" cy="54.1362316%" fx="88.5103189%" fy="54.1362316%" r="46.1110851%" gradientTransform="translate(0.885103,0.541362),scale(0.617172,1.000000),rotate(84.063152),scale(1.000000,0.548611),translate(-0.885103,-0.541362)" id="radialGradient-12">
            <stop stop-color="#FFC975" offset="0%"></stop>
            <stop stop-color="#FFFFFF" stop-opacity="0.5" offset="100%"></stop>
        </radialGradient>
        <path d="M221.5,191.43 C215.9,187.03 214.5,182.63 217.3,178.23 C220.1,173.83 228.8,173.43 243.4,177.03 L245.6,189.3 C241.733333,191.72 237.9,192.93 234.1,192.93 C230.3,192.93 226.1,192.43 221.5,191.43 Z" id="path-13"></path>
        <linearGradient x1="75.406203%" y1="56.0320087%" x2="26.0518732%" y2="44.9295327%" id="linearGradient-14">
            <stop stop-color="#FFEABF" offset="0%"></stop>
            <stop stop-color="#FFEABF" offset="0%"></stop>
            <stop stop-color="#FDF7EB" offset="100%"></stop>
        </linearGradient>
        <radialGradient cx="13.5753414%" cy="69.3552178%" fx="13.5753414%" fy="69.3552178%" r="64.5775235%" gradientTransform="translate(0.135753,0.693552),scale(1.000000,0.837838),rotate(74.187483),scale(1.000000,0.442207),translate(-0.135753,-0.693552)" id="radialGradient-15">
            <stop stop-color="#F3CC8F" offset="0%"></stop>
            <stop stop-color="#FFFFFF" stop-opacity="0.5" offset="100%"></stop>
        </radialGradient>
        <path d="M290.9,193.074194 C291.7,187.674194 294.5,184.274194 299.3,182.874194 C304.1,181.474194 307.8,183.174194 310.4,187.974194 C310.2,192.574194 309,196.474194 306.8,199.674194 C304.6,202.874194 300.2,204.874194 293.6,205.674194 L290.9,193.074194 Z" id="path-16"></path>
        <linearGradient x1="12.4910732%" y1="55.7692519%" x2="79.2808202%" y2="73.8362878%" id="linearGradient-17">
            <stop stop-color="#FFF1E5" offset="0%"></stop>
            <stop stop-color="#FFDFC7" offset="100%"></stop>
        </linearGradient>
        <linearGradient x1="51.2680722%" y1="31.0071617%" x2="50%" y2="93.0839374%" id="linearGradient-18">
            <stop stop-color="#FDFDFD" offset="0%"></stop>
            <stop stop-color="#E2DDFF" offset="100%"></stop>
        </linearGradient>
        <linearGradient x1="50%" y1="0%" x2="50%" y2="100%" id="linearGradient-19">
            <stop stop-color="#FFF1E5" offset="0%"></stop>
            <stop stop-color="#FFDFC7" offset="100%"></stop>
        </linearGradient>
        <linearGradient x1="50%" y1="0%" x2="50%" y2="100%" id="linearGradient-20">
            <stop stop-color="#A994FF" offset="0%"></stop>
            <stop stop-color="#EFECFF" offset="100%"></stop>
        </linearGradient>
        <linearGradient x1="50%" y1="0%" x2="50%" y2="100%" id="linearGradient-21">
            <stop stop-color="#A994FF" offset="0%"></stop>
            <stop stop-color="#EFECFF" offset="100%"></stop>
        </linearGradient>
        <linearGradient x1="50%" y1="0%" x2="50%" y2="100%" id="linearGradient-22">
            <stop stop-color="#FCE5BB" offset="0%"></stop>
            <stop stop-color="#FFF6EB" offset="100%"></stop>
        </linearGradient>
        <linearGradient x1="50%" y1="0%" x2="50%" y2="100%" id="linearGradient-23">
            <stop stop-color="#FCE5BB" offset="0%"></stop>
            <stop stop-color="#FFF6EB" offset="100%"></stop>
        </linearGradient>
    </defs>
    <g id="hi-fi-design" stroke="none" stroke-width="1" fill="none" fill-rule="evenodd">
        <g id="landing-page01" transform="translate(-907.000000, -167.000000)">
            <g id="Group-14" transform="translate(907.000000, 167.000000)">
                <g id="landing_1">
                    <rect id="Rectangle" fill="#7F68FF" opacity="0.139113653" x="165" y="232" width="36" height="50"></rect>
                    <rect id="Rectangle-Copy-12" fill="#7F68FF" opacity="0.139113653" x="204" y="232" width="36" height="50"></rect>
                    <rect id="Rectangle-Copy-9" fill="#7F68FF" opacity="0.139113653" x="165" y="181" width="36" height="50"></rect>
                    <rect id="Rectangle-Copy-13" fill="#7F68FF" opacity="0.139113653" x="204" y="181" width="36" height="50"></rect>
                    <rect id="Rectangle-Copy-10" fill="#7F68FF" opacity="0.139113653" x="165" y="130" width="36" height="50"></rect>
                    <rect id="Rectangle-Copy-14" fill="#7F68FF" opacity="0.139113653" x="204" y="130" width="36" height="50"></rect>
                    <rect id="Rectangle-Copy-11" fill="#7F68FF" opacity="0.139113653" x="165" y="79" width="36" height="50"></rect>
                    <rect id="Rectangle-Copy-15" fill="#7F68FF" opacity="0.139113653" x="204" y="79" width="36" height="50"></rect>
                    <rect id="Rectangle" fill="#7F68FF" opacity="0.139113653" x="265" y="217" width="36" height="65"></rect>
                    <rect id="Rectangle-Copy-12" fill="#7F68FF" opacity="0.139113653" x="304" y="217" width="36" height="65"></rect>
                    <rect id="Rectangle-Copy-9" fill="#7F68FF" opacity="0.139113653" x="265" y="151" width="36" height="65"></rect>
                    <rect id="Rectangle-Copy-13" fill="#7F68FF" opacity="0.139113653" x="304" y="151" width="36" height="65"></rect>
                    <rect id="Rectangle-Copy-10" fill="#7F68FF" opacity="0.139113653" x="265" y="84" width="36" height="65"></rect>
                    <rect id="Rectangle-Copy-14" fill="#7F68FF" opacity="0.139113653" x="304" y="84" width="36" height="65"></rect>
                    <rect id="Rectangle-Copy-11" fill="#7F68FF" opacity="0.139113653" x="265" y="18" width="36" height="65"></rect>
                    <rect id="Rectangle-Copy-15" fill="#7F68FF" opacity="0.139113653" x="304" y="18" width="36" height="65"></rect>
                    <path d="M51.2,241.2 C57.8,242 61.3,242.4 61.7,242.4 C62.1,242.4 62.1,243.9 61.7,246.9 L64.4,252 C64.4,253.8 64.4,255.6 64.4,257.4 C64.4,259.2 64.6,260.7 65,261.9 C64.9897389,263.089739 64.5897389,263.289739 63.8,262.5 C62.6153916,261.315392 61.7,259.8 61.7,258.6 C61.7,257.8 61.5,257.2 61.1,256.8 L59.3,261.9 L59.3,264.3 L59.3,268.2 C59.7,269.4 59.5,270.1 58.7,270.3 C57.9,270.5 57.2,269.3 56.6,266.7 C56.2,267.3 55.8,267.6 55.4,267.6 C55,267.6 54.3,266.9 53.3,265.5 L50.3,263.1 L49.7,260.7 C49.1,261.1 48.6,261.1 48.2,260.7 C47.8,260.3 47.4,258.5 47,255.3 C49.2,250.9 50.3,248.3 50.3,247.5 C50.3,246.7 50.6,244.6 51.2,241.2 Z" id="Path-48" fill="url(#linearGradient-1)"></path>
                    <path d="M236,207.3 C232.843924,217.441369 230.866729,226.041369 230.068413,233.1 C226.45401,265.05819 229.914987,292.936068 232.168413,302.1 C235.168413,314.3 236.945608,335.7 237.5,366.3 L251.068413,365.7 C251.544203,338.426544 251.933856,319.874508 252.237374,310.043891 C252.906129,288.383621 253.716475,274.935658 254.668413,269.7 C257.068413,256.5 258.354435,250.22462 258.868413,248.4 C259.211064,247.183587 259.811064,247.183587 260.668413,248.4 C264.068413,258.4 266.168413,265.5 266.968413,269.7 C270.324688,287.320447 273.868413,309.9 273.868413,315 C273.868413,318.4 273.645608,338.2 273.2,374.4 L287.9,373.2 C290.545608,331.4 291.868413,309.8 291.868413,308.4 C291.868413,307.308436 293.570574,285.583001 291.868413,240.6 C291.547768,232.126313 289.324963,221.026313 285.2,207.3 L236,207.3 Z" id="Path-37" fill="url(#linearGradient-2)"></path>
                    <path d="M265.672727,108 C276.200844,110.353676 284.600844,114.853676 290.872727,121.5 C300.280552,131.469486 302.572727,143.4 300.472727,152.7 C298.372727,162 304.072727,182.4 282.472727,175.5 C268.072727,170.9 262.472727,148.4 265.672727,108 Z" id="Path-44" fill="#7E9EFF"></path>
                    <path d="M260.074618,128.55811 C266.516323,126.085371 274.141834,119.32612 274.141834,109.302152 C274.141834,99.2781835 267.627577,91.1521517 259.591834,91.1521517 C251.556091,91.1521517 245.041834,99.2781835 245.041834,109.302152 C245.041834,119.32612 253.632913,131.030849 260.074618,128.55811 Z" id="Oval-Copy" fill="url(#radialGradient-3)" transform="translate(259.591834, 110.022546) rotate(21.000000) translate(-259.591834, -110.022546) "></path>
                    <path d="M262.211186,101.267833 C262.618749,104.113904 264.452782,105.943522 267.713286,106.756685 C270.973791,107.569849 274.115387,106.884287 277.138076,104.7 C275.338076,95.5 270.362446,90.9 262.211186,90.9 C249.984295,90.9 247.966799,95.0224054 244.438076,101.4 C242.085594,105.65173 243.085594,111.05173 247.438076,117.6 C250.816303,113.834365 253.702857,110.626509 256.09774,107.97643 C257.428818,106.503515 259.466633,104.267316 262.211186,101.267833 Z" id="Path-16" fill="url(#linearGradient-4)" transform="translate(260.169038, 104.250000) scale(-1, 1) translate(-260.169038, -104.250000) "></path>
                    <path d="M81.5,230.125087 C81.7,271.125087 82.5,296.325087 83.9,305.725087 C85.3,315.125087 86.5,329.725087 87.5,349.525087 L90.5,376.525087 L104.6,376.525087 C105.8,356.837534 106.4,343.829172 106.4,337.5 C106.4,330.3 104.831161,309.035248 105.8,305.725087 C107.2,300.941812 109.7,283.641812 113.3,253.825087 C114.418458,253.350212 115.018458,253.350212 115.1,253.825087 C120.674632,286.290149 122.52147,307.028142 123.5,311.725087 C124.042697,314.330032 122,316.931797 122,327.6 C122,330 121.5,343 120.5,366.6 L133.1,363.9 L143.9,312.925087 C146.3,280.508362 146.8,261.7 145.4,256.5 C144,251.3 140.8,240.9 135.8,225.3 C104.4,217.3 87.7,214.9 85.7,218.1 C83.7,221.3 82.3,225.308362 81.5,230.125087 Z" id="Path-4" fill="url(#linearGradient-5)"></path>
                    <ellipse id="Oval" fill="url(#radialGradient-6)" cx="110.75" cy="113.25" rx="14.55" ry="18.15"></ellipse>
                    <path d="M112.213041,101.632011 C112.892905,102.735012 114.898596,103.703704 118.230115,104.538089 C121.561633,105.372473 124.218262,102.294183 126.2,95.3032183 C124.684474,94.5456334 123.151804,93.9299754 121.601989,93.4562443 C118.741399,92.5818491 111.448815,91.4264144 106.888355,91.9170992 C98.3054013,92.8405863 97.0064356,95.2235987 93.4008565,101.767627 C90.9971371,106.130313 92.5298074,113.107771 97.9988673,122.7 C100.863541,115.963024 103.5194,111.234918 105.966444,108.515681 C107.326512,107.004327 109.408711,104.709771 112.213041,101.632011 Z" id="Path-16" fill="url(#linearGradient-7)"></path>
                    <path d="M71.3,147 C78.5235834,141.722031 86.8235834,138.022031 96.2,135.9 C102.4584,134.483625 106.115769,137.372313 110.3,137.1 C115.519073,136.760338 121.102344,133.510028 128.3,134.1 C136.945436,134.808642 144.545436,136.908642 151.1,140.4 L135.8,225.3 C130.4,225.3 124.1,225.3 116.9,225.3 C112.758939,225.3 101.333444,228.846355 96.2,226.2 C93.6720013,224.896785 89.9720013,222.596785 85.1,219.3 L71.3,147 Z" id="Path" fill="url(#linearGradient-8)"></path>
                    <path d="M47.9,242.1 C51.5,218.496547 54.1,204.18518 55.7,199.165899 C57.3,194.146619 62.4,176.857986 71,147.3 C73.4,148.043597 75.2,150.274388 76.4,153.992374 C77.6,157.71036 78.2,167.841871 78.2,184.386906 L72.2,203.627482 C66.6,226.493094 63.8,239.320144 63.8,242.108633 C63.8,242.797377 62.3222689,245.651489 61.7,246 C60.4352769,246.708327 55.8352769,245.408327 47.9,242.1 Z" id="Path-2" fill="url(#linearGradient-9)"></path>
                    <path d="M239.6,133.5 C245.6,139.9 247.9,145.7 246.5,150.9 C245.1,156.1 239,166.6 228.2,182.4 L216.5,181.2 C222.08667,165.861292 226.68667,154.461292 230.3,147 C233.91333,139.538708 237.01333,135.038708 239.6,133.5 Z" id="Path-6" fill="#FDF7EB"></path>
                    <path d="M284.9,135 C297.9,156.8 306.1,172.7 309.5,182.7 C312.9,192.7 307.6,195.1 293.6,189.9 L282.2,157.8 L284.9,135 Z" id="Path-38" fill="#FDF7EB"></path>
                    <ellipse id="Oval" fill="#FFDFC7" transform="translate(272.710770, 114.419673) rotate(19.000000) translate(-272.710770, -114.419673) " cx="272.71077" cy="114.419673" rx="3.6" ry="5.55"></ellipse>
                    <line x1="272.884449" y1="112.752209" x2="272.386964" y2="115.610155" id="Line-3" stroke="#A07A5E" stroke-width="0.5" stroke-linecap="square" transform="translate(272.659512, 114.198647) rotate(19.000000) translate(-272.659512, -114.198647) "></line>
                    <ellipse id="Oval" fill="#FFDFC7" transform="translate(98.710770, 115.319673) scale(-1, 1) rotate(19.000000) translate(-98.710770, -115.319673) " cx="98.7107701" cy="115.319673" rx="3.6" ry="5.55"></ellipse>
                    <line x1="98.8844488" y1="113.652209" x2="98.3869643" y2="116.510155" id="Line-3" stroke="#A07A5E" stroke-width="0.5" stroke-linecap="square" transform="translate(98.659512, 115.098647) scale(-1, 1) rotate(19.000000) translate(-98.659512, -115.098647) "></line>
                    <polygon id="Path-45" fill="#F3F1FE" points="103.7 131.4 109.1 137.1 103.7 146.4 97.7 135"></polygon>
                    <polygon id="Path-45" fill="#F3F1FE" transform="translate(118.100000, 138.900000) scale(-1, 1) translate(-118.100000, -138.900000) " points="118.4 131.4 123.8 137.1 118.4 146.4 112.4 135"></polygon>
                    <path d="M239.6,133.5 C246.085384,132.315987 251.185384,131.615987 254.9,131.4 C255.951023,131.338888 252.8,138.3 259.1,138.3 C265.4,138.3 263.473511,130.470013 264.8,130.499581 C272.168581,130.666578 278.643317,132.232762 284.3,134.4 C287.404769,135.589526 286.7,148.2 286.7,154.2 C286.7,166.645018 278,171.065388 278,183.9 C278,192.456408 280.4,200.256408 285.2,207.3 L269.3,220.2 L261.8,209.1 L260.6,209.1 L254.9,220.2 L236,207.3 C240.765854,194.856917 243.165854,186.556917 243.2,182.4 C243.25122,176.164624 237.346052,169.480206 234.8,156.3 C233.102632,147.513196 234.702632,139.913196 239.6,133.5 Z" id="Path-5" fill="url(#linearGradient-10)"></path>
                    <g id="Path-15">
                        <use fill="url(#linearGradient-11)" xlink:href="#path-13"></use>
                        <use fill-opacity="0.6" fill="url(#radialGradient-12)" xlink:href="#path-13"></use>
                    </g>
                    <g id="Path-39">
                        <use fill="url(#linearGradient-14)" xlink:href="#path-16"></use>
                        <use fill-opacity="0.4" fill="url(#radialGradient-15)" xlink:href="#path-16"></use>
                    </g>
                    <path d="M291.65,194.7 C295.45,199.9 296.25,204 294.05,207 C290.75,211.5 287.45,213.3 286.85,212.7 C286.45,212.3 286.55,211.4 287.15,210 C283.149224,212.603494 281.349224,213.003494 281.75,211.2 C282.150776,209.396506 284.200776,206.296506 287.9,201.9 L287.9,201 C283,204.6 280.25,206.1 279.65,205.5 C279.05,204.9 278.95,204.3 279.35,203.7 C278.15,203.3 277.75,202.5 278.15,201.3 C278.55,200.1 279.75,198.5 281.75,196.5 C284.15,194.1 285.95,193 287.15,193.2 C287.896933,193.324489 288.570605,194.343049 289.55,194.7 C289.946048,194.844344 290.646048,194.844344 291.65,194.7 Z" id="Path-42" fill="#FFDFC7"></path>
                    <path d="M281.45,196.5 C280.25,195.5 279.55,194.6 279.35,193.8 C279.15,193 279.25,192.1 279.65,191.1 L285.35,194.1 L281.45,196.5 Z" id="Path-43" fill="#F4D5BF"></path>
                    <polygon id="Path-46" fill="#AC9595" transform="translate(121.997321, 208.508772) scale(-1, 1) rotate(4.000000) translate(-121.997321, -208.508772) " points="116.147321 201.608772 116.147321 214.642105 125.247321 215.408772 127.847321 202.119883"></polygon>
                    <ellipse id="Oval" fill="#FFFFFF" transform="translate(121.446668, 200.182085) scale(-1, 1) rotate(8.000000) translate(-121.446668, -200.182085) " cx="121.446668" cy="200.182085" rx="7.09185183" ry="2.43209035"></ellipse>
                    <ellipse id="Oval-Copy-4" fill="#F4F4F4" transform="translate(121.237675, 199.041886) scale(-1, 1) rotate(8.000000) translate(-121.237675, -199.041886) " cx="121.237675" cy="199.041886" rx="6.70502355" ry="2.30408558"></ellipse>
                    <ellipse id="Oval-Copy-5" fill="#FFFFFF" transform="translate(121.201960, 198.531133) scale(-1, 1) rotate(8.000000) translate(-121.201960, -198.531133) " cx="121.20196" cy="198.531133" rx="5.15771043" ry="1.79206652"></ellipse>
                    <path d="M131.207692,202.971429 C135.607692,203.571429 138.007692,205.371429 138.407692,208.371429 C138.807692,211.371429 138.607692,214.171429 137.807692,216.771429 L131.207692,219.471429 C125.807692,220.271429 122.907692,220.271429 122.507692,219.471429 C122.107692,218.671429 122.107692,218.071429 122.507692,217.671429 C119.907692,217.671429 118.607692,217.171429 118.607692,216.171429 C118.607692,215.171429 119.007692,214.671429 119.807692,214.671429 C117.807692,214.871429 117.107692,214.371429 117.707692,213.171429 C118.307692,211.971429 120.307692,211.071429 123.707692,210.471429 C122.107692,210.671429 121.707692,210.271429 122.507692,209.271429 C123.707692,207.771429 129.107692,205.371429 129.107692,203.871429 C129.107692,202.871429 129.807692,202.571429 131.207692,202.971429 Z" id="Path-47" fill="url(#linearGradient-17)"></path>
                    <path d="M151.1,140.1 C147.1,157.1 145.1,166.9 145.1,169.5 C145.1,172.1 145.8,178 147.2,187.2 C146.90636,189.303395 146.70636,190.503395 146.6,190.8 C145.70547,193.294551 144.2,196.2 140.3,197.4 C136.969297,198.424832 132.752103,199.102536 129.8,201 C129.559044,201.154875 129.559044,201.754875 129.8,202.8 C133.840628,203.633131 136.240628,204.733131 137,206.1 C138.5,208.8 137.863761,213.53051 137.6,216.3 C137.501256,217.336807 139.4,217.8 143.6,215.7 C151.033895,211.983053 165.051885,206.673245 164.3,197.4 C163.981762,193.475063 163.156277,185.407846 160.7,174.9 C159.250174,168.697706 156.050174,157.097706 151.1,140.1 Z" id="Path-3" fill="url(#linearGradient-18)"></path>
                    <polygon id="Path-46" fill="#AC9595" points="249.5 168 249.5 179.9 257.666667 180.6 260 168.466667"></polygon>
                    <ellipse id="Oval" fill="#FFFFFF" transform="translate(254.600000, 166.796000) rotate(4.000000) translate(-254.600000, -166.796000) " cx="254.6" cy="166.796" rx="6.3684774" ry="2.20398069"></ellipse>
                    <ellipse id="Oval-Copy-4" fill="#F4F4F4" transform="translate(254.715789, 165.752000) rotate(4.000000) translate(-254.715789, -165.752000) " cx="254.715789" cy="165.752" rx="6.0211059" ry="2.0879817"></ellipse>
                    <ellipse id="Oval-Copy-5" fill="#FFFFFF" transform="translate(254.715789, 165.288000) rotate(4.000000) translate(-254.715789, -165.288000) " cx="254.715789" cy="165.288" rx="4.63161992" ry="1.62398577"></ellipse>
                    <path d="M241.921403,189.3 C239.89103,185.383166 239.656756,182.249699 241.218582,179.899599 C243.56132,176.374449 244.498415,177.549499 247.543975,170.029178 C248.367184,167.996449 249.108445,168.797477 249.418165,168.619118 C249.72095,168.444752 249.72095,169.463129 249.418165,171.674248 C258.32057,171.674248 262.303224,172.770961 261.366129,174.964388 C260.429034,177.157815 259.726213,177.941182 259.257665,177.314489 C260.130036,177.612308 260.520492,178.082328 260.429034,178.724549 C260.337576,179.36677 259.790937,179.993463 258.789117,180.604629 L258.789117,181.779679 C257.539657,184.129779 255.743558,185.696513 253.40082,186.47988 C252.134968,186.903156 250.144745,186.43514 248.012522,186.9499 C246.803237,187.241845 244.772864,188.025211 241.921403,189.3 Z" id="Path-41" fill="url(#linearGradient-19)"></path>
                    <path d="M83.5142857,393 C82.3142857,390.8 83.2142857,388.1 86.2142857,384.9 C89.2142857,381.7 90.7142857,377.8 90.7142857,373.2 C90.3142857,370.8 92.0142857,370.2 95.8142857,371.4 C99.6142857,372.6 102.414286,374.2 104.214286,376.2 C104.214286,377.2 104.214286,379.1 104.214286,381.9 C104.214286,386.1 106.014286,392.1 104.214286,393 C103.014286,393.6 96.1142857,393.6 83.5142857,393 Z" id="Path-50" fill="url(#linearGradient-20)"></path>
                    <path d="M123.5,385.5 C122.6,383.7 122.6,382.2 122.6,377.1 C122.6,373.7 121.7,369.7 119.9,365.1 C120.9,363.3 123.3,362.4 127.1,362.4 C130.9,362.4 133.4,363.1 134.6,364.5 C133.8,368.5 134.4,371.6 136.4,373.8 C139.4,377.1 143,381.3 141.8,384.6 C140.6,387.9 124.4,387.3 123.5,385.5 Z" id="Path-51" fill="url(#linearGradient-21)"></path>
                    <path d="M237.371429,366.38089 C238.371429,371.38089 238.371429,374.88089 237.371429,376.88089 C236.371429,378.88089 236.071429,381.08089 236.471429,383.48089 C240.581011,387.48089 243.781011,389.48089 246.071429,389.48089 C248.361846,389.48089 250.561846,387.48089 252.671429,383.48089 L251.471429,376.88089 C250.871429,369.88089 250.771429,366.08089 251.171429,365.48089 C251.771429,364.58089 246.505563,362.914104 243.371429,363.38089 C241.282006,363.69208 239.282006,364.69208 237.371429,366.38089 Z" id="Path-52" fill="url(#linearGradient-22)"></path>
                    <path d="M272.9,374.535 C274.5,371.135 277.1,369.735 280.7,370.335 C284.3,370.935 286.7,371.79 287.9,372.9 C286.9,376.3 286.8,378.5 287.6,379.5 C288.4,380.5 290.2,382.745 293,386.235 C294,391.835 293.3,394.735 290.9,394.935 C287.3,395.235 281.9,394.935 278.3,391.935 C275.9,389.935 274.6,388.035 274.4,386.235 C274.4,381.835 274.2,378.835 273.8,377.235 C273.4,375.635 273.1,374.735 272.9,374.535 Z" id="Path-53" fill="url(#linearGradient-23)"></path>
                    <path d="M86,23 C90.418278,23 94,26.581722 94,31 C94,35.418278 90.418278,39 86,39 L63.9296499,38.99984 C64.6103875,40.1765696 65,41.5427854 65,43 C65,47.418278 61.418278,51 57,51 L8,51 C3.581722,51 5.41083001e-16,47.418278 0,43 C-5.41083001e-16,38.581722 3.581722,35 8,35 L30.0709285,35.0011597 C29.3898332,33.8242042 29,32.4576273 29,31 C29,26.581722 32.581722,23 37,23 L86,23 Z M198,0 C202.418278,-8.11624501e-16 206,3.581722 206,8 C206,12.418278 202.418278,16 198,16 L172,16 C167.581722,16 164,12.418278 164,8 C164,3.581722 167.581722,8.11624501e-16 172,0 L198,0 Z" id="Combined-Shape" fill="#E5E5E5" opacity="0.25265067"></path>
                </g>
                <g id="Group" transform="translate(47.000000, 87.000000)">
                    <g id="Group-5-Copy" transform="translate(74.717805, 119.209854) scale(-1, 1) rotate(4.000000) translate(-74.717805, -119.209854) translate(67.217805, 109.209854)"></g>
                    <g id="Group-5" transform="translate(201.000000, 76.200000)"></g>
                </g>
            </g>
        </g>
    </g>
</svg>