<?xml version="1.0" encoding="UTF-8"?>
<svg width="171px" height="17px" viewBox="0 0 171 17" version="1.1" xmlns="http://www.w3.org/2000/svg" xmlns:xlink="http://www.w3.org/1999/xlink">
    <title>Group</title>
    <g id="hi-fi-design" stroke="none" stroke-width="1" fill="none" fill-rule="evenodd">
        <g id="08-dashboard-with-match" transform="translate(-60.000000, -36.000000)" fill-rule="nonzero">
            <g id="Group" transform="translate(60.000000, 36.000000)">
                <g id="work-buddies-logo-07-copy">
                    <path d="M0,4.01462073 L5.88118083,4.01462073 L11.7571036,16.6320002 L6.49900716,16.6320002 C6.11842681,16.6331198 5.76845246,16.3912788 5.58935648,16.003405 L0,4.01462073 Z" id="Path" fill="#7F68FF"></path>
                    <path d="M12.8768277,0.573517247 L18.8164254,0.573517247 C21.3154561,5.92634489 23.8144868,11.2791725 26.3135175,16.6320002 L20.4082375,16.6320002 L12.8768277,0.573517247 Z" id="Path" fill="#7F68FF"></path>
                    <polygon id="Path" fill="#7F68FF" points="10.0775173 9.7497932 12.8768277 16.6320002 18.4754485 16.6320002 15.6761381 9.7497932"></polygon>
                    <path d="M28.4867294,6.46567692 L25.9703007,0.999158153 C25.6869454,0.384263131 25.1334555,7.47250066e-05 24.5308404,0 L19.5951726,0 L23.0519788,7.45572421 L27.971886,7.45572421 C28.1757795,7.45383823 28.3641545,7.32950349 28.4692178,7.12746605 C28.5742811,6.9254286 28.580914,6.67476195 28.4867294,6.46567692 Z" id="Path" fill="#F3CC8F"></path>
                    <path d="M28.9688836,9.17627595 L24.0740692,9.17627595 L27.2927882,16.6320002 L31.6280486,16.6320002 C31.9246776,16.6317765 32.1994621,16.4384583 32.3519219,16.1227358 C32.5043816,15.8070133 32.5121588,15.4151867 32.3724094,15.0905348 L30.234297,10.1221752 C29.9844876,9.54246684 29.4986745,9.17932053 28.9688836,9.17627595 L28.9688836,9.17627595 Z" id="Path" fill="#F3CC8F"></path>
                </g>
                <path d="M50.2245958,16.3372559 C50.7075375,14.9898533 51.1697817,13.5757824 51.6113284,12.0950432 C52.0528751,10.6143039 52.4944218,9.13005579 52.9359685,7.64229881 C53.3775152,9.13005579 53.825961,10.6143039 54.2813061,12.0950432 C54.7366511,13.5757824 55.2057945,14.9898533 55.6887362,16.3372559 L55.6887362,16.3372559 L58.6484788,16.3372559 C59.3797905,14.0775495 60.0593585,11.6915242 60.6871827,9.17917984 C61.3150069,6.66683551 61.8703899,4.18957979 62.3533315,1.74741268 L62.3533315,1.74741268 L59.0003363,1.74741268 C58.862353,2.57550382 58.7140209,3.43517472 58.5553401,4.32642536 C58.3966592,5.217676 58.2345288,6.1124355 58.0689488,7.01070387 C57.9033688,7.90897223 57.72744,8.77916971 57.5411625,9.6212963 C57.354885,10.4634229 57.1720571,11.24239 56.9926787,11.9581976 C56.7719054,11.2985318 56.5442329,10.5827242 56.3096612,9.81077478 C56.0750895,9.03882541 55.8439674,8.26687603 55.6162949,7.49492666 C55.3886224,6.72297728 55.1747482,5.97558993 54.9746724,5.25276461 C54.7745965,4.52993929 54.5917686,3.88080004 54.4261886,3.30534687 L54.4261886,3.30534687 L51.6734209,3.30534687 C51.5216392,3.8667646 51.3526096,4.50537726 51.1663321,5.22118486 C50.9800546,5.93699246 50.7765292,6.68087095 50.5557559,7.45282033 C50.3349825,8.2247697 50.10731,8.99671908 49.8727383,9.76866845 C49.6381666,10.5406178 49.3966958,11.2704609 49.1483258,11.9581976 C48.9551491,11.24239 48.765422,10.4634229 48.5791445,9.6212963 C48.392867,8.77916971 48.210039,7.90897223 48.0306607,7.01070387 C47.8512824,6.1124355 47.6788032,5.217676 47.5132232,4.32642536 C47.3476432,3.43517472 47.1958615,2.57550382 47.0578781,1.74741268 L47.0578781,1.74741268 L43.5600004,1.74741268 C44.0429421,4.18957979 44.5983251,6.66683551 45.2261493,9.17917984 C45.8539735,11.6915242 46.5335414,14.0775495 47.2648532,16.3372559 L47.2648532,16.3372559 L50.2245958,16.3372559 Z M67.6113967,16.6320002 C68.4254985,16.6320002 69.1602598,16.4916457 69.8156806,16.2109369 C70.4711015,15.930228 71.0333836,15.5337267 71.502527,15.0214331 C71.9716703,14.5091394 72.330427,13.8915799 72.578797,13.1687546 C72.8271671,12.4459292 72.9513521,11.6494178 72.9513521,10.7792204 C72.9513521,9.90902288 72.8202679,9.11602035 72.5580995,8.40021274 C72.2959312,7.68440514 71.9302753,7.07386336 71.461132,6.56858741 C70.9919886,6.06331145 70.4297065,5.67031904 69.7742856,5.38961018 C69.1188648,5.10890132 68.3979018,4.96854689 67.6113967,4.96854689 C66.83869,4.96854689 66.1246262,5.10890132 65.4692054,5.38961018 C64.8137845,5.67031904 64.2480528,6.06331145 63.7720103,6.56858741 C63.2959677,7.07386336 62.9234127,7.68440514 62.6543452,8.40021274 C62.3852777,9.11602035 62.2507439,9.90902288 62.2507439,10.7792204 C62.2507439,11.6494178 62.3818281,12.4459292 62.6439965,13.1687546 C62.9061648,13.8915799 63.2718207,14.5091394 63.740964,15.0214331 C64.2101074,15.5337267 64.7723895,15.930228 65.4278104,16.2109369 C66.0832312,16.4916457 66.8110934,16.6320002 67.6113967,16.6320002 Z M67.6113967,13.9371951 C66.9076817,13.9371951 66.3626475,13.6529774 65.9762942,13.0845419 C65.5899408,12.5161065 65.3967641,11.7476659 65.3967641,10.7792204 C65.3967641,9.81077478 65.5899408,9.04935199 65.9762942,8.49495198 C66.3626475,7.94055198 66.9076817,7.66335198 67.6113967,7.66335198 C68.3151118,7.66335198 68.8566964,7.94055198 69.2361506,8.49495198 C69.6156048,9.04935199 69.8053319,9.81077478 69.8053319,10.7792204 C69.8053319,11.7476659 69.6156048,12.5161065 69.2361506,13.0845419 C68.8566964,13.6529774 68.3151118,13.9371951 67.6113967,13.9371951 Z M77.6505847,16.3372559 L77.6505847,7.87388362 C77.7885681,7.83177729 77.9920935,7.79317983 78.261161,7.75809122 C78.5302285,7.72300261 78.7613506,7.70545831 78.9545273,7.70545831 C79.3822757,7.70545831 79.7824274,7.74405577 80.1549824,7.82125071 C80.5275374,7.89844565 80.8517983,7.97213173 81.1277649,8.04230894 L81.1277649,8.04230894 L81.6452025,5.45276968 C81.4796225,5.38259246 81.2795466,5.32294183 81.0449749,5.27381777 C80.8104033,5.22469372 80.5758316,5.18258739 80.3412599,5.14749879 C80.1066882,5.11241018 79.8721165,5.08433929 79.6375448,5.06328613 C79.4029732,5.04223296 79.2028973,5.03170638 79.0373173,5.03170638 C78.1128289,5.03170638 77.2745801,5.1194279 76.5225709,5.29487094 C75.7705617,5.47031398 75.1185904,5.6562836 74.5666571,5.85277981 L74.5666571,5.85277981 L74.5666571,16.3372559 L77.6505847,16.3372559 Z M85.6200226,16.3372559 L85.6200226,11.495028 C85.9649809,11.7757368 86.3133889,12.1196052 86.6652464,12.526633 C87.0171039,12.9336609 87.3517135,13.358233 87.6690752,13.8003495 C87.9864369,14.242466 88.2865507,14.6845824 88.5694165,15.1266989 C88.8522824,15.5688153 89.104102,15.9723343 89.3248753,16.3372559 L89.3248753,16.3372559 L92.864148,16.3372559 C92.6295763,15.8740862 92.3398113,15.3617926 91.994853,14.8003748 C91.6498946,14.2389571 91.2704404,13.6775394 90.8564904,13.1161217 C90.4425404,12.5547039 90.014792,12.0108305 89.5732453,11.4845014 C89.1316986,10.9581723 88.7039503,10.5055292 88.2900003,10.1265723 C89.1179003,9.29848111 89.8802583,8.49495198 90.5770741,7.71598489 C91.27389,6.93701779 91.9879538,6.11945323 92.7192655,5.26329119 L92.7192655,5.26329119 L89.0558078,5.26329119 C88.8626311,5.50189373 88.631509,5.78260259 88.3624415,6.10541778 C88.093374,6.42823298 87.8070586,6.76859247 87.5034952,7.12649627 C87.1999319,7.48440008 86.8860198,7.84581274 86.5617589,8.21073426 C86.237498,8.57565578 85.9235859,8.92654186 85.6200226,9.2633925 L85.6200226,9.2633925 L85.6200226,0 L82.5360949,0.505275954 L82.5360949,16.3372559 L85.6200226,16.3372559 Z M102.945631,16.5267343 C105.111969,16.5267343 106.743622,16.1407597 107.84059,15.3688103 C108.937558,14.5968609 109.486041,13.4459546 109.486041,11.9160913 C109.486041,11.1581773 109.320461,10.4774583 108.989301,9.87393428 C108.658141,9.27041022 108.037216,8.79320515 107.126526,8.44231907 C108.230393,7.7686178 108.782326,6.84929627 108.782326,5.68435449 C108.782326,4.91240511 108.627095,4.26326587 108.316632,3.73693675 C108.00617,3.21060763 107.574972,2.78603547 107.023039,2.46322028 C106.471105,2.14040508 105.812235,1.91232913 105.046427,1.77899242 C104.28062,1.64565571 103.442371,1.57898736 102.531681,1.57898736 C101.855563,1.57898736 101.124251,1.6105671 100.337746,1.6737266 C99.5512407,1.73688609 98.8268282,1.83162533 98.1645081,1.95794432 L98.1645081,1.95794432 L98.1645081,16.105671 C99.0062065,16.2881318 99.8168586,16.4039242 100.596465,16.4530483 C101.37607,16.5021723 102.159126,16.5267343 102.945631,16.5267343 Z M102.883538,7.47387349 L101.310528,7.47387349 L101.310528,4.29484561 C101.558898,4.26677473 101.841764,4.24923042 102.159126,4.2422127 C102.476488,4.23519498 102.773152,4.23168612 103.049118,4.23168612 C103.904615,4.23168612 104.553137,4.35098739 104.994684,4.58958992 C105.43623,4.82819245 105.657004,5.24223803 105.657004,5.83172664 C105.657004,6.40717981 105.443129,6.82473425 105.015381,7.08438994 C104.587633,7.34404564 103.877018,7.47387349 102.883538,7.47387349 L102.883538,7.47387349 Z M102.987026,13.8319293 C102.655866,13.8319293 102.352303,13.8249115 102.076336,13.8108761 C101.800369,13.7968406 101.5451,13.7757875 101.310528,13.7477166 L101.310528,13.7477166 L101.310528,9.9792001 L103.338883,9.9792001 C104.263372,9.9792001 104.973986,10.1230634 105.470726,10.41079 C105.967466,10.6985166 106.215836,11.1792305 106.215836,11.8529318 C106.215836,12.6108457 105.919172,13.1301571 105.325844,13.410866 C104.732515,13.6915748 103.952909,13.8319293 102.987026,13.8319293 Z M115.758284,16.5898938 C116.668974,16.5898938 117.538269,16.5232255 118.366169,16.3898888 C119.194069,16.2565521 119.870188,16.1126888 120.394524,15.9582989 L120.394524,15.9582989 L120.394524,5.26329119 L117.310597,5.26329119 L117.310597,13.8108761 C117.11742,13.838947 116.896647,13.863509 116.648277,13.8845622 C116.399907,13.9056153 116.165335,13.9161419 115.944562,13.9161419 C115.227048,13.9161419 114.737207,13.6915748 114.475039,13.2424406 C114.212871,12.7933065 114.081786,12.0634634 114.081786,11.0529115 L114.081786,11.0529115 L114.081786,5.26329119 L110.997859,5.26329119 L110.997859,11.4318685 C110.997859,12.1897824 111.07375,12.8845368 111.225531,13.5161318 C111.377313,14.1477267 111.632582,14.6916001 111.991339,15.1477521 C112.350096,15.603904 112.836487,15.9582989 113.450513,16.2109369 C114.064539,16.4635748 114.833796,16.5898938 115.758284,16.5898938 Z M127.680945,16.610947 C128.0535,16.610947 128.443303,16.5934027 128.850353,16.5583141 C129.257404,16.5232255 129.657556,16.4776103 130.050809,16.4214685 C130.444061,16.3653267 130.820066,16.2986584 131.178822,16.2214635 C131.537579,16.1442685 131.854941,16.0635647 132.130907,15.9793521 L132.130907,15.9793521 L132.130907,0 L129.04698,0.505275954 L129.04698,5.51592917 C128.702021,5.36153929 128.360513,5.24223803 128.022453,5.15802537 C127.684394,5.07381271 127.30149,5.03170638 126.873742,5.03170638 C126.101035,5.03170638 125.414568,5.16504309 124.814341,5.43171651 C124.214113,5.69838993 123.707024,6.08436462 123.293074,6.58964057 C122.879124,7.09491653 122.561763,7.70896717 122.340989,8.43179249 C122.120216,9.15461781 122.009829,9.96516466 122.009829,10.863433 C122.009829,11.7476659 122.137464,12.5441773 122.392733,13.2529672 C122.648002,13.9617571 123.017108,14.5652812 123.500049,15.0635394 C123.982991,15.5617976 124.576319,15.9442635 125.280034,16.2109369 C125.98375,16.4776103 126.784053,16.610947 127.680945,16.610947 Z M127.701642,13.9371951 C126.859944,13.9371951 126.22522,13.6424508 125.797472,13.0529622 C125.369724,12.4634735 125.155849,11.6845064 125.155849,10.7160609 C125.155849,8.69495705 125.887161,7.68440514 127.349785,7.68440514 C127.667146,7.68440514 127.981058,7.72651147 128.291521,7.81072413 C128.601983,7.89493679 128.853803,8.00020261 129.04698,8.1265216 L129.04698,8.1265216 L129.04698,13.8319293 C128.895198,13.8600001 128.702021,13.8845622 128.46745,13.9056153 C128.232878,13.9266685 127.977609,13.9371951 127.701642,13.9371951 Z M139.417328,16.610947 C139.789883,16.610947 140.179686,16.5934027 140.586737,16.5583141 C140.993787,16.5232255 141.393939,16.4776103 141.787192,16.4214685 C142.180444,16.3653267 142.556449,16.2986584 142.915205,16.2214635 C143.273962,16.1442685 143.591324,16.0635647 143.86729,15.9793521 L143.86729,15.9793521 L143.86729,0 L140.783363,0.505275954 L140.783363,5.51592917 C140.438404,5.36153929 140.096896,5.24223803 139.758836,5.15802537 C139.420777,5.07381271 139.037874,5.03170638 138.610125,5.03170638 C137.837418,5.03170638 137.150951,5.16504309 136.550724,5.43171651 C135.950496,5.69838993 135.443407,6.08436462 135.029457,6.58964057 C134.615507,7.09491653 134.298146,7.70896717 134.077372,8.43179249 C133.856599,9.15461781 133.746212,9.96516466 133.746212,10.863433 C133.746212,11.7476659 133.873847,12.5441773 134.129116,13.2529672 C134.384385,13.9617571 134.753491,14.5652812 135.236432,15.0635394 C135.719374,15.5617976 136.312703,15.9442635 137.016418,16.2109369 C137.720133,16.4776103 138.520436,16.610947 139.417328,16.610947 Z M139.438025,13.9371951 C138.596327,13.9371951 137.961603,13.6424508 137.533855,13.0529622 C137.106107,12.4634735 136.892233,11.6845064 136.892233,10.7160609 C136.892233,8.69495705 137.623544,7.68440514 139.086168,7.68440514 C139.403529,7.68440514 139.717441,7.72651147 140.027904,7.81072413 C140.338367,7.89493679 140.590186,8.00020261 140.783363,8.1265216 L140.783363,8.1265216 L140.783363,13.8319293 C140.631581,13.8600001 140.438404,13.8845622 140.203833,13.9056153 C139.969261,13.9266685 139.713992,13.9371951 139.438025,13.9371951 Z M147.531648,3.91588865 C148.028388,3.91588865 148.459586,3.75097219 148.825242,3.42113928 C149.190898,3.09130636 149.373726,2.63866332 149.373726,2.06321015 C149.373726,1.48775698 149.190898,1.03511393 148.825242,0.70528102 C148.459586,0.375448105 148.028388,0.210531648 147.531648,0.210531648 C147.034908,0.210531648 146.60371,0.375448105 146.238054,0.70528102 C145.872398,1.03511393 145.68957,1.48775698 145.68957,2.06321015 C145.68957,2.63866332 145.872398,3.09130636 146.238054,3.42113928 C146.60371,3.75097219 147.034908,3.91588865 147.531648,3.91588865 Z M149.083961,16.3372559 L149.083961,5.26329119 L146.000033,5.26329119 L146.000033,16.3372559 L149.083961,16.3372559 Z M156.453171,16.6320002 C156.839524,16.6320002 157.225878,16.610947 157.612231,16.5688407 C157.998584,16.5267343 158.360791,16.4741014 158.69885,16.4109419 C159.036909,16.3477824 159.343922,16.2740964 159.619889,16.1898837 C159.895855,16.105671 160.116629,16.0214584 160.282209,15.9372457 L160.282209,15.9372457 L159.868259,13.3898128 C159.5233,13.5442027 159.078304,13.6740305 158.53327,13.7792963 C157.988236,13.8845622 157.432853,13.9371951 156.867121,13.9371951 C155.984028,13.9371951 155.280313,13.7477166 154.755976,13.3687596 C154.231639,12.9898027 153.934975,12.477509 153.865983,11.8318786 L153.865983,11.8318786 L160.861739,11.8318786 C160.875537,11.6634533 160.889335,11.4704659 160.903134,11.2529166 C160.916932,11.0353672 160.923831,10.8353621 160.923831,10.6529014 C160.923831,8.78618743 160.475385,7.37211653 159.578494,6.41068867 C158.681602,5.44926081 157.460449,4.96854689 155.915036,4.96854689 C155.252716,4.96854689 154.607644,5.09486587 153.97982,5.34750385 C153.351995,5.60014183 152.796612,5.97208107 152.313671,6.46332158 C151.830729,6.9545621 151.440926,7.56861273 151.144262,8.3054735 C150.847598,9.04233427 150.699266,9.90200516 150.699266,10.8844862 C150.699266,11.6985419 150.813102,12.4564558 151.040774,13.158228 C151.268447,13.8600001 151.620304,14.4670331 152.096347,14.9793267 C152.57239,15.4916204 153.172617,15.8951394 153.89703,16.1898837 C154.621442,16.484628 155.473489,16.6320002 156.453171,16.6320002 Z M157.943391,9.68445579 L153.865983,9.68445579 C153.907378,9.41778237 153.97292,9.15461781 154.06261,8.89496212 C154.152299,8.63530642 154.279933,8.40723046 154.445513,8.21073426 C154.611093,8.01423806 154.818068,7.85633932 155.066438,7.73703805 C155.314808,7.61773679 155.611473,7.55808615 155.956431,7.55808615 C156.315188,7.55808615 156.615301,7.62124565 156.856772,7.74756464 C157.098243,7.87388362 157.298319,8.03529122 157.457,8.23178742 C157.615681,8.42828363 157.732967,8.65285072 157.808857,8.9054887 C157.884748,9.15812667 157.929593,9.41778237 157.943391,9.68445579 L157.943391,9.68445579 Z M165.643761,16.6320002 C167.120183,16.6320002 168.261995,16.3512913 169.069198,15.7898736 C169.8764,15.2284558 170.280002,14.4003647 170.280002,13.3056001 C170.280002,12.8424305 170.228258,12.4354027 170.12477,12.0845166 C170.021283,11.7336305 169.841905,11.4143242 169.586635,11.1265976 C169.331366,10.838871 168.982958,10.5721976 168.541412,10.3265773 C168.099865,10.0809571 167.541032,9.83182795 166.864914,9.57918997 C166.533754,9.45287098 166.261237,9.33707858 166.047363,9.23181275 C165.833489,9.12654693 165.664459,9.02829883 165.540274,8.93706844 C165.416089,8.84583806 165.333299,8.75109882 165.291904,8.65285072 C165.250509,8.55460262 165.229811,8.44231907 165.229811,8.31600008 C165.229811,7.7686178 165.712753,7.49492666 166.678637,7.49492666 C167.202973,7.49492666 167.675566,7.54405071 168.096415,7.64229881 C168.517265,7.74054691 168.907067,7.85283046 169.265824,7.97914945 L169.265824,7.97914945 L169.803959,5.53698233 C169.445203,5.3966279 168.962261,5.26680005 168.355134,5.14749879 C167.748007,5.02819752 167.113284,4.96854689 166.450964,4.96854689 C165.126324,4.96854689 164.08455,5.27030891 163.325641,5.87383297 C162.566733,6.47735703 162.187279,7.29843045 162.187279,8.33705325 C162.187279,8.87040009 162.26317,9.32655199 162.414951,9.70550896 C162.566733,10.0844659 162.780607,10.41079 163.056574,10.6844811 C163.33254,10.9581723 163.66715,11.1932659 164.060403,11.3897621 C164.453655,11.5862583 164.891752,11.7757368 165.374694,11.9581976 C165.995619,12.1968001 166.457863,12.4108406 166.761427,12.6003191 C167.06499,12.7897976 167.216772,13.0108558 167.216772,13.2634938 C167.216772,13.586309 167.099486,13.8038584 166.864914,13.9161419 C166.630342,14.0284255 166.230191,14.0845672 165.664459,14.0845672 C165.126324,14.0845672 164.58129,14.0249166 164.029356,13.9056153 C163.477423,13.7863141 162.939288,13.6213976 162.414951,13.410866 L162.414951,13.410866 L161.897514,15.9582989 C162.145884,16.0705824 162.59088,16.2109369 163.232503,16.3793622 C163.874125,16.5477875 164.677878,16.6320002 165.643761,16.6320002 Z" id="WorkBuddies" fill="#5B5B5B"></path>
            </g>
        </g>
    </g>
</svg>