<?xml version="1.0" encoding="UTF-8"?>
<svg width="45px" height="24px" viewBox="0 0 45 24" version="1.1" xmlns="http://www.w3.org/2000/svg" xmlns:xlink="http://www.w3.org/1999/xlink">
    <!-- Generator: Sketch 64 (93537) - https://sketch.com -->
    <title>work buddies logo-07 copy</title>
    <desc>Created with Sketch.</desc>
    <g id="design" stroke="none" stroke-width="1" fill="none" fill-rule="evenodd">
        <g id="08--match-notification" transform="translate(-453.000000, -303.000000)" fill-rule="nonzero">
            <g id="work-buddies-logo-07-copy" transform="translate(453.000000, 303.000000)">
                <path d="M0,5.56592283 L8.15374623,5.56592283 L16.3002026,23.0588231 L9.01030875,23.0588231 C8.48266716,23.0603754 7.99745813,22.7250839 7.74915712,22.1873305 L0,5.56592283 Z" id="Path" fill="#7F68FF"></path>
                <path d="M17.8526028,0.795131832 L26.0873389,0.795131832 C29.5520278,8.21636227 33.0167168,15.6375927 36.4814057,23.0588231 L28.2942481,23.0588231 L17.8526028,0.795131832 Z" id="Path" fill="#7F68FF"></path>
                <polygon id="Path" fill="#7F68FF" points="13.9716022 13.5172411 17.8526028 23.0588231 25.614604 23.0588231 21.7336034 13.5172411"></polygon>
                <path d="M39.4943753,8.96409928 L36.0055654,1.38524597 C35.6127179,0.532747444 34.8453523,0.000103599729 34.0098787,0 L27.1670043,0 L31.9595656,10.3367138 L38.7805895,10.3367138 C39.0632702,10.3340991 39.3244357,10.1617198 39.4700969,9.88161239 C39.615758,9.60150503 39.624954,9.25397749 39.4943753,8.96409928 Z" id="Path" fill="#9683FF"></path>
                <path d="M40.1628401,12.7221093 L33.3766052,12.7221093 L37.8390795,23.0588231 L43.8495413,23.0588231 C44.2607917,23.0585131 44.6417565,22.7904941 44.8531287,22.3527723 C45.0645009,21.9150505 45.0752833,21.371817 44.881533,20.9217153 L41.9172259,14.0335164 C41.5708868,13.2298012 40.8973491,12.7263304 40.1628401,12.7221093 L40.1628401,12.7221093 Z" id="Path" fill="#9683FF"></path>
            </g>
        </g>
    </g>
</svg>