<?xml version="1.0" encoding="UTF-8"?>
<svg width="255px" height="26px" viewBox="0 0 255 26" version="1.1" xmlns="http://www.w3.org/2000/svg" xmlns:xlink="http://www.w3.org/1999/xlink">
    <!-- Generator: Sketch 63.1 (92452) - https://sketch.com -->
    <title>Group</title>
    <desc>Created with Sketch.</desc>
    <g id="design" stroke="none" stroke-width="1" fill="none" fill-rule="evenodd">
        <g id="landing-page" transform="translate(-63.000000, -41.000000)" fill-rule="nonzero">
            <g id="Group" transform="translate(63.000000, 41.000000)">
                <g id="work-buddies-logo-07-copy" transform="translate(0.000000, 3.000000)">
                    <path d="M0,5.06896552 L7.4257333,5.06896552 L14.8448276,21 L8.20581704,21 C7.72528629,21.0014136 7.2833995,20.6960589 7.05726821,20.2063192 L0,5.06896552 Z" id="Path" fill="#7F68FF"></path>
                    <path d="M16.2586207,0.724137931 L23.7581126,0.724137931 C26.9134544,7.48275862 30.0687962,14.2413793 33.2241379,21 L25.7679764,21 L16.2586207,0.724137931 Z" id="Path" fill="#7F68FF"></path>
                    <polygon id="Path" fill="#7F68FF" points="12.7241379 12.3103448 16.2586207 21 23.3275862 21 19.7931034 12.3103448"></polygon>
                    <path d="M35.9680924,8.16373341 L32.7907833,1.26156331 C32.4330115,0.485180716 31.7341606,9.43497549e-05 30.973283,0 L24.7413793,0 L29.1060335,9.4137931 L35.3180375,9.4137931 C35.5754788,9.41141181 35.813326,9.2544235 35.9459817,8.99932573 C36.0786374,8.74422795 36.0870123,8.42772964 35.9680924,8.16373341 Z" id="Path" fill="#9683FF"></path>
                    <path d="M36.5768728,11.5862069 L30.3965517,11.5862069 L34.4605909,21 L39.9344044,21 C40.308936,20.9997176 40.6558861,20.7556289 40.8483858,20.3569894 C41.0408855,19.9583499 41.0507051,19.4636194 40.8742539,19.0537053 L38.1746171,12.7805241 C37.8592011,12.0485691 37.2458007,11.5900511 36.5768728,11.5862069 L36.5768728,11.5862069 Z" id="Path" fill="#9683FF"></path>
                </g>
                <path d="M65.5186164,25.5392405 C66.2808349,23.4329114 67.010387,21.2223629 67.7072726,18.9075949 C68.4041581,16.592827 69.1010437,14.2725738 69.7979292,11.9468354 C70.4948148,14.2725738 71.2025892,16.592827 71.9212524,18.9075949 C72.6399156,21.2223629 73.3803565,23.4329114 74.1425751,25.5392405 L74.1425751,25.5392405 L78.8138861,25.5392405 C79.9681028,22.0067511 81.0406532,18.2767932 82.0315374,14.3493671 C83.0224215,10.4219409 83.8989729,6.54936709 84.6611915,2.73164557 L84.6611915,2.73164557 L79.3692168,2.73164557 C79.15144,4.02616034 78.9173301,5.37004219 78.6668868,6.76329114 C78.4164436,8.15654008 78.1605559,9.55527426 77.8992238,10.9594937 C77.6378917,12.3637131 77.3602264,13.7240506 77.0662278,15.0405063 C76.7722292,16.356962 76.483675,17.5746835 76.2005653,18.6936709 C75.8521225,17.6624473 75.4927909,16.5434599 75.1225704,15.3367089 C74.75235,14.1299578 74.3875739,12.9232068 74.0282423,11.7164557 C73.6689107,10.5097046 73.3313568,9.34135021 73.0155805,8.21139241 C72.6998042,7.0814346 72.4112501,6.06666667 72.149918,5.16708861 L72.149918,5.16708861 L67.8052721,5.16708861 C67.5657177,6.04472574 67.2989412,7.04303797 67.0049426,8.16202532 C66.710944,9.28101266 66.3897233,10.4438819 66.0412805,11.6506329 C65.6928377,12.857384 65.3335061,14.064135 64.9632857,15.2708861 C64.5930652,16.4776371 64.2119559,17.6185654 63.8199578,18.6936709 C63.5150704,17.5746835 63.2156274,16.356962 62.9216288,15.0405063 C62.6276302,13.7240506 62.339076,12.3637131 62.0559663,10.9594937 C61.7728565,9.55527426 61.5006356,8.15654008 61.2393035,6.76329114 C60.9779714,5.37004219 60.738417,4.02616034 60.5206403,2.73164557 L60.5206403,2.73164557 L55,2.73164557 C55.7622186,6.54936709 56.6387699,10.4219409 57.6296541,14.3493671 C58.6205382,18.2767932 59.6930887,22.0067511 60.8473054,25.5392405 L60.8473054,25.5392405 L65.5186164,25.5392405 Z M92.9599054,26 C94.2447882,26 95.4044493,25.7805907 96.4388888,25.3417722 C97.4733283,24.9029536 98.3607685,24.2831224 99.1012094,23.4822785 C99.8416503,22.6814346 100.40787,21.7160338 100.799868,20.5860759 C101.191866,19.4561181 101.387865,18.2109705 101.387865,16.8506329 C101.387865,15.4902954 101.180977,14.2506329 100.767201,13.1316456 C100.353426,12.0126582 99.7763173,11.0582278 99.0358764,10.2683544 C98.2954354,9.47848101 97.4079952,8.86413502 96.3735557,8.42531646 C95.3391163,7.98649789 94.2012328,7.76708861 92.9599054,7.76708861 C91.7403557,7.76708861 90.6133611,7.98649789 89.5789216,8.42531646 C88.5444821,8.86413502 87.6515975,9.47848101 86.9002677,10.2683544 C86.148938,11.0582278 85.5609408,12.0126582 85.1362762,13.1316456 C84.7116115,14.2506329 84.4992792,15.4902954 84.4992792,16.8506329 C84.4992792,18.2109705 84.7061671,19.4561181 85.1199429,20.5860759 C85.5337187,21.7160338 86.1108271,22.6814346 86.851268,23.4822785 C87.5917089,24.2831224 88.4791491,24.9029536 89.5135886,25.3417722 C90.5480281,25.7805907 91.6968003,26 92.9599054,26 Z M92.9599054,21.7873418 C91.8492441,21.7873418 90.9890259,21.343038 90.3792511,20.4544304 C89.7694762,19.5658228 89.4645888,18.364557 89.4645888,16.8506329 C89.4645888,15.3367089 89.7694762,14.1464135 90.3792511,13.2797468 C90.9890259,12.4130802 91.8492441,11.9797468 92.9599054,11.9797468 C94.0705668,11.9797468 94.9253405,12.4130802 95.5242265,13.2797468 C96.1231125,14.1464135 96.4225555,15.3367089 96.4225555,16.8506329 C96.4225555,18.364557 96.1231125,19.5658228 95.5242265,20.4544304 C94.9253405,21.343038 94.0705668,21.7873418 92.9599054,21.7873418 Z M108.804583,25.5392405 L108.804583,12.3088608 C109.02236,12.243038 109.343581,12.1827004 109.768245,12.1278481 C110.19291,12.0729958 110.557686,12.0455696 110.862573,12.0455696 C111.537681,12.0455696 112.169234,12.1059072 112.757231,12.2265823 C113.345228,12.3472574 113.857004,12.4624473 114.292557,12.5721519 L114.292557,12.5721519 L115.10922,8.52405063 C114.847888,8.41434599 114.532111,8.32109705 114.161891,8.2443038 C113.791671,8.16751055 113.42145,8.10168776 113.05123,8.04683544 C112.681009,7.99198312 112.310789,7.94810127 111.940568,7.91518987 C111.570348,7.88227848 111.254572,7.86582278 110.993239,7.86582278 C109.534135,7.86582278 108.211142,8.00295359 107.024258,8.27721519 C105.837375,8.55147679 104.80838,8.84219409 103.937273,9.14936709 L103.937273,9.14936709 L103.937273,25.5392405 L108.804583,25.5392405 Z M121.38261,25.5392405 L121.38261,17.9696203 C121.927052,18.4084388 122.476938,18.9459916 123.032269,19.5822785 C123.5876,20.2185654 124.115708,20.8822785 124.616595,21.5734177 C125.117481,22.264557 125.591145,22.9556962 126.037588,23.6468354 C126.48403,24.3379747 126.881473,24.9687764 127.229915,25.5392405 L127.229915,25.5392405 L132.815889,25.5392405 C132.445668,24.8151899 131.988337,24.014346 131.443895,23.1367089 C130.899453,22.2590717 130.300567,21.3814346 129.647237,20.5037975 C128.993907,19.6261603 128.318799,18.7759494 127.621914,17.9531646 C126.925028,17.1303797 126.24992,16.4227848 125.59659,15.8303797 C126.90325,14.535865 128.106467,13.2797468 129.206239,12.0620253 C130.306012,10.8443038 131.433006,9.56624473 132.587223,8.2278481 L132.587223,8.2278481 L126.805251,8.2278481 C126.500363,8.60084388 126.135587,9.03966245 125.710923,9.5443038 C125.286258,10.0489451 124.834371,10.5810127 124.355263,11.1405063 C123.876154,11.7 123.380712,12.2649789 122.868936,12.835443 C122.357161,13.4059072 121.861719,13.9544304 121.38261,14.4810127 L121.38261,14.4810127 L121.38261,0 L116.5153,0.789873418 L116.5153,25.5392405 L121.38261,25.5392405 Z M148.72732,25.835443 C152.146415,25.835443 154.721625,25.2320675 156.45295,24.0253165 C158.184275,22.8185654 159.049937,21.0194093 159.049937,18.6278481 C159.049937,17.443038 158.788605,16.378903 158.265941,15.435443 C157.743277,14.4919831 156.763281,13.7459916 155.325955,13.1974684 C157.068169,12.1443038 157.939276,10.707173 157.939276,8.88607595 C157.939276,7.67932489 157.694277,6.66455696 157.204279,5.84177215 C156.714282,5.01898734 156.033729,4.35527426 155.162622,3.85063291 C154.291515,3.34599156 153.251632,2.98945148 152.042971,2.78101266 C150.83431,2.57257384 149.511316,2.46835443 148.07399,2.46835443 C147.006884,2.46835443 145.852667,2.51772152 144.61134,2.6164557 C143.370012,2.71518987 142.226684,2.86329114 141.181356,3.06075949 L141.181356,3.06075949 L141.181356,25.1772152 C142.509794,25.4624473 143.789232,25.6434599 145.019671,25.7202532 C146.250109,25.7970464 147.485992,25.835443 148.72732,25.835443 Z M148.62932,11.6835443 L146.146666,11.6835443 L146.146666,6.71392405 C146.538664,6.67004219 146.985106,6.64261603 147.485992,6.63164557 C147.986879,6.62067511 148.455099,6.61518987 148.890652,6.61518987 C150.240868,6.61518987 151.264419,6.80168776 151.961304,7.17468354 C152.65819,7.54767932 153.006633,8.19493671 153.006633,9.1164557 C153.006633,10.0160338 152.669079,10.6687764 151.993971,11.0746835 C151.318863,11.4805907 150.197313,11.6835443 148.62932,11.6835443 L148.62932,11.6835443 Z M148.792653,21.6227848 C148.269989,21.6227848 147.79088,21.6118143 147.355326,21.5898734 C146.919773,21.5679325 146.516886,21.5350211 146.146666,21.4911392 L146.146666,21.4911392 L146.146666,15.6 L149.347984,15.6 C150.807088,15.6 151.928638,15.8248945 152.712634,16.2746835 C153.49663,16.7244726 153.888629,17.4759494 153.888629,18.5291139 C153.888629,19.7139241 153.420409,20.5257384 152.483969,20.964557 C151.547529,21.4033755 150.31709,21.6227848 148.792653,21.6227848 Z M168.94931,25.9341772 C170.386637,25.9341772 171.75863,25.8299578 173.06529,25.621519 C174.371951,25.4130802 175.439057,25.1881857 176.266608,24.9468354 L176.266608,24.9468354 L176.266608,8.2278481 L171.399298,8.2278481 L171.399298,21.5898734 C171.094411,21.6337553 170.745968,21.6721519 170.35397,21.7050633 C169.961972,21.7379747 169.591751,21.7544304 169.243309,21.7544304 C168.11087,21.7544304 167.337762,21.4033755 166.923986,20.7012658 C166.510211,19.9991561 166.303323,18.8582278 166.303323,17.278481 L166.303323,17.278481 L166.303323,8.2278481 L161.436013,8.2278481 L161.436013,17.8708861 C161.436013,19.0556962 161.55579,20.1417722 161.795344,21.1291139 C162.034899,22.1164557 162.437786,22.9666667 163.004005,23.6797468 C163.570225,24.392827 164.337888,24.9468354 165.306994,25.3417722 C166.276101,25.7367089 167.490206,25.9341772 168.94931,25.9341772 Z M187.76664,25.9670886 C188.354638,25.9670886 188.969857,25.9396624 189.612298,25.8848101 C190.25474,25.8299578 190.886292,25.7586498 191.506956,25.6708861 C192.12762,25.5831224 192.721061,25.478903 193.287281,25.3582278 C193.8535,25.2375527 194.354387,25.1113924 194.78994,24.9797468 L194.78994,24.9797468 L194.78994,0 L189.92263,0.789873418 L189.92263,8.62278481 C189.378188,8.3814346 188.839191,8.19493671 188.305638,8.06329114 C187.772085,7.93164557 187.167754,7.86582278 186.492646,7.86582278 C185.273097,7.86582278 184.189657,8.0742616 183.242329,8.49113924 C182.295,8.90801688 181.49467,9.51139241 180.84134,10.3012658 C180.18801,11.0911392 179.687123,12.0510549 179.338681,13.1810127 C178.990238,14.3109705 178.816017,15.5780591 178.816017,16.9822785 C178.816017,18.364557 179.01746,19.6097046 179.420347,20.7177215 C179.823234,21.8257384 180.405787,22.7691983 181.168005,23.5481013 C181.930224,24.3270042 182.866664,24.9248945 183.977325,25.3417722 C185.087987,25.7586498 186.351092,25.9670886 187.76664,25.9670886 Z M187.799307,21.7873418 C186.470869,21.7873418 185.469096,21.3265823 184.793988,20.4050633 C184.11888,19.4835443 183.781326,18.2658228 183.781326,16.7518987 C183.781326,13.5924051 184.935543,12.0126582 187.243976,12.0126582 C187.744863,12.0126582 188.240305,12.078481 188.730302,12.2101266 C189.2203,12.3417722 189.617743,12.5063291 189.92263,12.7037975 L189.92263,12.7037975 L189.92263,21.6227848 C189.683076,21.6666667 189.378188,21.7050633 189.007968,21.7379747 C188.637747,21.7708861 188.23486,21.7873418 187.799307,21.7873418 Z M206.289972,25.9670886 C206.877969,25.9670886 207.493189,25.9396624 208.13563,25.8848101 C208.778071,25.8299578 209.409624,25.7586498 210.030288,25.6708861 C210.650951,25.5831224 211.244393,25.478903 211.810612,25.3582278 C212.376832,25.2375527 212.877718,25.1113924 213.313272,24.9797468 L213.313272,24.9797468 L213.313272,0 L208.445962,0.789873418 L208.445962,8.62278481 C207.90152,8.3814346 207.362523,8.19493671 206.82897,8.06329114 C206.295417,7.93164557 205.691086,7.86582278 205.015978,7.86582278 C203.796428,7.86582278 202.712989,8.0742616 201.76566,8.49113924 C200.818332,8.90801688 200.018002,9.51139241 199.364672,10.3012658 C198.711342,11.0911392 198.210455,12.0510549 197.862012,13.1810127 C197.51357,14.3109705 197.339348,15.5780591 197.339348,16.9822785 C197.339348,18.364557 197.540792,19.6097046 197.943679,20.7177215 C198.346566,21.8257384 198.929118,22.7691983 199.691337,23.5481013 C200.453556,24.3270042 201.389996,24.9248945 202.500657,25.3417722 C203.611318,25.7586498 204.874423,25.9670886 206.289972,25.9670886 Z M206.322639,21.7873418 C204.994201,21.7873418 203.992428,21.3265823 203.31732,20.4050633 C202.642212,19.4835443 202.304658,18.2658228 202.304658,16.7518987 C202.304658,13.5924051 203.458875,12.0126582 205.767308,12.0126582 C206.268194,12.0126582 206.763636,12.078481 207.253634,12.2101266 C207.743632,12.3417722 208.141074,12.5063291 208.445962,12.7037975 L208.445962,12.7037975 L208.445962,21.6227848 C208.206407,21.6666667 207.90152,21.7050633 207.531299,21.7379747 C207.161079,21.7708861 206.758192,21.7873418 206.322639,21.7873418 Z M219.096664,6.12151899 C219.880661,6.12151899 220.561213,5.86371308 221.138321,5.34810127 C221.71543,4.83248945 222.003984,4.12489451 222.003984,3.22531646 C222.003984,2.3257384 221.71543,1.61814346 221.138321,1.10253165 C220.561213,0.586919831 219.880661,0.329113924 219.096664,0.329113924 C218.312668,0.329113924 217.632116,0.586919831 217.055008,1.10253165 C216.477899,1.61814346 216.189345,2.3257384 216.189345,3.22531646 C216.189345,4.12489451 216.477899,4.83248945 217.055008,5.34810127 C217.632116,5.86371308 218.312668,6.12151899 219.096664,6.12151899 Z M221.546653,25.5392405 L221.546653,8.2278481 L216.679343,8.2278481 L216.679343,25.5392405 L221.546653,25.5392405 Z M233.177351,26 C233.787126,26 234.3969,25.9670886 235.006675,25.9012658 C235.61645,25.835443 236.188114,25.7531646 236.721667,25.6544304 C237.25522,25.5556962 237.739773,25.4405063 238.175327,25.3088608 C238.61088,25.1772152 238.959323,25.0455696 239.220655,24.9139241 L239.220655,24.9139241 L238.567325,20.9316456 C238.022883,21.1729958 237.320553,21.3759494 236.460335,21.5405063 C235.600117,21.7050633 234.723566,21.7873418 233.830681,21.7873418 C232.43691,21.7873418 231.326248,21.4911392 230.498697,20.8987342 C229.671145,20.3063291 229.202925,19.5054852 229.094037,18.4962025 L229.094037,18.4962025 L240.135317,18.4962025 C240.157095,18.2329114 240.178873,17.9312236 240.20065,17.5911392 C240.222428,17.2510549 240.233317,16.9383966 240.233317,16.6531646 C240.233317,13.7350211 239.525543,11.5244726 238.109994,10.021519 C236.694445,8.5185654 234.767121,7.76708861 232.328021,7.76708861 C231.282693,7.76708861 230.264587,7.96455696 229.273703,8.35949367 C228.282819,8.75443038 227.406267,9.33586498 226.644049,10.1037975 C225.88183,10.87173 225.266611,11.8316456 224.798391,12.9835443 C224.330171,14.135443 224.096061,15.4793249 224.096061,17.0151899 C224.096061,18.2877637 224.275727,19.4725738 224.635058,20.5696203 C224.99439,21.6666667 225.549721,22.6156118 226.30105,23.4164557 C227.05238,24.2172996 227.999709,24.8481013 229.143037,25.3088608 C230.286365,25.7696203 231.631136,26 233.177351,26 Z M235.529339,15.1392405 L229.094037,15.1392405 C229.15937,14.7223629 229.262814,14.3109705 229.404369,13.9050633 C229.545924,13.4991561 229.747367,13.142616 230.008699,12.835443 C230.270031,12.52827 230.596696,12.2814346 230.988695,12.0949367 C231.380693,11.9084388 231.848913,11.8151899 232.393354,11.8151899 C232.959574,11.8151899 233.433238,11.9139241 233.814348,12.1113924 C234.195457,12.3088608 234.511233,12.5611814 234.761677,12.8683544 C235.01212,13.1755274 235.19723,13.5265823 235.317007,13.921519 C235.436784,14.3164557 235.507562,14.7223629 235.529339,15.1392405 L235.529339,15.1392405 Z M247.682702,26 C250.012913,26 251.815015,25.5611814 253.089009,24.6835443 C254.363003,23.8059072 255,22.5113924 255,20.8 C255,20.0759494 254.918334,19.4396624 254.755001,18.8911392 C254.591669,18.342616 254.308559,17.8434599 253.905672,17.3936709 C253.502785,16.9438819 252.952899,16.5270042 252.256013,16.143038 C251.559128,15.7590717 250.677132,15.3696203 249.610026,14.9746835 C249.087362,14.7772152 248.657253,14.5962025 248.319699,14.4316456 C247.982145,14.2670886 247.715368,14.1135021 247.519369,13.9708861 C247.32337,13.82827 247.192704,13.6801688 247.127371,13.5265823 C247.062038,13.3729958 247.029371,13.1974684 247.029371,13 C247.029371,12.1443038 247.79159,11.7164557 249.316027,11.7164557 C250.143579,11.7164557 250.889464,11.7932489 251.553683,11.9468354 C252.217902,12.1004219 252.833121,12.2759494 253.399341,12.4734177 L253.399341,12.4734177 L254.24867,8.6556962 C253.682451,8.43628692 252.920232,8.23333333 251.962015,8.04683544 C251.003797,7.86033755 250.002024,7.76708861 248.956696,7.76708861 C246.866039,7.76708861 245.221825,8.23881857 244.024052,9.18227848 C242.82628,10.1257384 242.227394,11.4092827 242.227394,13.0329114 C242.227394,13.8666667 242.347172,14.5797468 242.586726,15.1721519 C242.82628,15.764557 243.163834,16.2746835 243.599388,16.7025316 C244.034941,17.1303797 244.56305,17.4978903 245.183714,17.8050633 C245.804377,18.1122363 246.495818,18.4084388 247.258037,18.6936709 C248.238032,19.0666667 248.967584,19.4012658 249.446693,19.6974684 C249.925802,19.9936709 250.165356,20.3392405 250.165356,20.7341772 C250.165356,21.2388186 249.980246,21.578903 249.610026,21.7544304 C249.239805,21.9299578 248.608253,22.0177215 247.715368,22.0177215 C246.866039,22.0177215 246.005821,21.9244726 245.134714,21.7379747 C244.263607,21.5514768 243.414278,21.2936709 242.586726,20.964557 L242.586726,20.964557 L241.770063,24.9468354 C242.162061,25.1223629 242.864391,25.3417722 243.877053,25.6050633 C244.889715,25.8683544 246.158265,26 247.682702,26 Z" id="WorkBuddies" fill="#5744BF"></path>
            </g>
        </g>
    </g>
</svg>