<?xml version="1.0" encoding="UTF-8"?>
<svg width="33px" height="17px" viewBox="0 0 33 17" version="1.1" xmlns="http://www.w3.org/2000/svg" xmlns:xlink="http://www.w3.org/1999/xlink">
    <title>work buddies logo-07 copy</title>
    <g id="hi-fi-design" stroke="none" stroke-width="1" fill="none" fill-rule="evenodd">
        <g id="07-dashboard-new-users" transform="translate(-60.000000, -36.000000)" fill-rule="nonzero">
            <g id="Group" transform="translate(60.000000, 36.000000)">
                <g id="work-buddies-logo-07-copy">
                    <path d="M0,4.01462073 L5.88118083,4.01462073 L11.7571036,16.6320002 L6.49900716,16.6320002 C6.11842681,16.6331198 5.76845246,16.3912788 5.58935648,16.003405 L0,4.01462073 Z" id="Path" fill="#7F68FF"></path>
                    <path d="M12.8768277,0.573517247 L18.8164254,0.573517247 C21.3154561,5.92634489 23.8144868,11.2791725 26.3135175,16.6320002 L20.4082375,16.6320002 L12.8768277,0.573517247 Z" id="Path" fill="#7F68FF"></path>
                    <polygon id="Path" fill="#7F68FF" points="10.0775173 9.7497932 12.8768277 16.6320002 18.4754485 16.6320002 15.6761381 9.7497932"></polygon>
                    <path d="M28.4867294,6.46567692 L25.9703007,0.999158153 C25.6869454,0.384263131 25.1334555,7.47250066e-05 24.5308404,0 L19.5951726,0 L23.0519788,7.45572421 L27.971886,7.45572421 C28.1757795,7.45383823 28.3641545,7.32950349 28.4692178,7.12746605 C28.5742811,6.9254286 28.580914,6.67476195 28.4867294,6.46567692 Z" id="Path" fill="#F3CC8F"></path>
                    <path d="M28.9688836,9.17627595 L24.0740692,9.17627595 L27.2927882,16.6320002 L31.6280486,16.6320002 C31.9246776,16.6317765 32.1994621,16.4384583 32.3519219,16.1227358 C32.5043816,15.8070133 32.5121588,15.4151867 32.3724094,15.0905348 L30.234297,10.1221752 C29.9844876,9.54246684 29.4986745,9.17932053 28.9688836,9.17627595 L28.9688836,9.17627595 Z" id="Path" fill="#F3CC8F"></path>
                </g>
            </g>
        </g>
    </g>
</svg>